<svg width="29" height="28" viewBox="0 0 29 28" fill="none" xmlns="http://www.w3.org/2000/svg">
<g clip-path="url(#clip0_4_172)">
<path d="M28.3773 11.164C26.7717 4.26911 19.9017 -0.473026 12.739 0.370201C5.92978 1.17005 0.45837 6.97773 0.28165 13.5907C0.160155 18.1403 1.86108 21.9497 5.33749 24.9119C6.86999 26.2188 8.66066 27.146 10.6584 27.6707C11.2756 27.832 11.7408 27.6002 11.901 27.0498C12.0584 26.5075 11.803 26.0886 11.1817 25.869C11.0975 25.8392 11.0105 25.8134 10.9249 25.7877C10.8807 25.7741 10.8365 25.7619 10.7937 25.7483C7.96344 24.8644 5.54459 22.9909 3.98172 20.4748C2.41886 17.9573 1.85142 15.0169 2.3802 12.193C3.00424 8.86754 4.87637 6.02877 7.65004 4.20132C10.3795 2.40235 13.6958 1.78416 16.99 2.462C21.8332 3.45706 25.0666 6.45987 26.3382 11.1451C27.6139 15.8438 26.3202 19.9664 22.4931 23.399C21.5115 24.2788 20.396 24.9417 19.1782 25.3687L19.0084 25.4284L18.6467 21.0374L18.7102 20.9926C18.7185 20.9872 18.7268 20.9804 18.7351 20.9737C18.7641 20.9506 18.8 20.9208 18.8497 20.9032C22.6339 19.5597 24.2369 17.1087 23.8945 13.1894C23.8254 12.4031 23.5548 11.6345 23.2939 10.8916C22.9322 9.86395 22.558 8.79976 22.6809 7.63388C22.7002 7.44815 22.627 7.23125 22.5566 7.02247C22.5345 6.95876 22.5138 6.89639 22.4945 6.83403C22.2018 5.87964 21.7752 5.6302 20.8654 5.88235C20.2786 6.04368 19.6974 6.27143 19.1354 6.4924C18.7806 6.63068 18.4148 6.77438 18.0475 6.90182C17.7065 7.01976 17.3462 7.11872 17.0286 7.05365C15.3166 6.69847 13.5895 6.71474 11.7505 7.1011C11.4233 7.17024 10.9925 7.1011 10.704 6.93435C9.70165 6.35413 8.70208 6.03961 7.64866 5.97454C6.97906 5.93387 6.57868 6.20094 6.46684 6.77303C6.36468 7.29225 6.29151 7.8291 6.22109 8.34696C6.17277 8.70215 6.12307 9.06818 6.0637 9.42743L6.03885 9.5874C5.98501 9.93716 5.9284 10.2978 5.76687 10.6123C4.08803 13.8835 4.92883 17.6319 7.81157 19.7278C8.30722 20.0884 8.86637 20.3623 9.45589 20.6524C9.72926 20.7866 10.0123 20.9262 10.2926 21.0753L10.3864 21.1255L10.1559 22.0202L10.044 22.0162C8.91469 21.9782 8.38039 21.5647 7.35182 20.3406C6.82166 19.7102 6.08717 19.214 5.50593 18.852C5.32645 18.7395 5.14283 18.7043 4.96335 18.7463C4.73554 18.7992 4.52016 18.9781 4.35725 19.2465C4.08113 19.7034 4.3255 20.2118 4.69136 20.5127C5.10141 20.8517 5.62881 21.3058 6.06784 21.825C7.4747 23.4939 9.00167 24.1405 10.8697 23.8626C11.6318 23.7487 11.9203 23.4559 12.0556 22.6574C12.1536 22.0867 12.2779 21.482 12.5264 20.9384C12.797 20.346 12.8591 19.9542 12.7225 19.7061C12.5844 19.458 12.2213 19.2981 11.5765 19.2018C9.61881 18.909 8.06008 17.815 7.30074 16.199C6.53588 14.5722 6.70017 12.681 7.75359 11.0109C7.94411 10.7085 7.98001 10.2666 8.01038 9.87616C8.04076 9.49521 8.03523 9.10343 8.02833 8.65063C8.02557 8.43237 8.02143 8.19784 8.02143 7.94026V7.7098L8.22714 7.82232C8.46185 7.95111 8.67998 8.06091 8.88984 8.16666C9.32197 8.38356 9.69474 8.572 10.015 8.83094C10.4831 9.21052 10.9249 9.29457 11.5406 9.12376C13.6323 8.54353 15.5016 8.53675 17.255 9.10342C17.7755 9.27153 18.1593 9.12783 18.6094 8.84178C19.0278 8.57607 19.4765 8.34967 19.9514 8.11243C20.1668 8.00398 20.3918 7.89146 20.6238 7.76945L20.8267 7.66235V7.88874C20.8267 8.15717 20.8239 8.40525 20.8212 8.63979C20.8157 9.1563 20.8115 9.60231 20.8364 10.0456C20.8529 10.3466 20.8764 10.7601 21.0504 10.9783C22.0292 12.2079 22.2874 13.6571 21.8622 15.5374C21.3679 17.7255 19.6007 19.1056 17.1363 19.2303C16.5233 19.2615 16.2458 19.4133 16.174 19.7549C16.116 20.0369 16.2113 20.3731 16.3024 20.6985C16.319 20.7568 16.3355 20.8137 16.3507 20.8706C16.3811 20.9845 16.4432 21.097 16.5081 21.2163C16.6006 21.3844 16.6959 21.558 16.7097 21.7532C16.8215 23.3786 16.9016 24.9702 16.9472 26.4845C16.9637 27.0145 17.1073 27.3806 17.3765 27.5744C17.6375 27.7615 18.0185 27.7873 18.51 27.6503C25.6064 25.6602 30.0327 18.2691 28.3773 11.164Z" fill="black"/>
<path d="M28.6464 11.1043C27.8498 7.68255 25.783 4.67296 22.8285 2.62861C19.867 0.578836 16.2719 -0.318617 12.7057 0.100285C9.38947 0.490717 6.24993 2.09176 3.86422 4.60924C1.46331 7.14163 0.0923512 10.3288 0.00537192 13.5838C-0.117504 18.2188 1.61518 22.0987 5.15648 25.1165C6.72211 26.4504 8.54867 27.3967 10.5865 27.9322C11.3458 28.1315 11.9657 27.8142 12.1659 27.1242C12.3633 26.445 12.0306 25.8811 11.274 25.614C11.1857 25.5828 11.0945 25.5557 11.0048 25.5286C10.962 25.5164 10.9192 25.5028 10.8764 25.4893C8.18281 24.6474 5.95448 22.8945 4.46893 20.6793C4.48273 20.6915 4.49792 20.7038 4.51311 20.7173C4.91487 21.0481 5.42984 21.4928 5.85369 21.9957C7.30887 23.7215 8.96286 24.4196 10.9109 24.1282C11.789 23.9967 12.1728 23.6103 12.3288 22.7007C12.4241 22.1475 12.5442 21.5646 12.7803 21.0481C13.0937 20.3621 13.1517 19.908 12.9667 19.5745C12.7817 19.241 12.3675 19.0431 11.6206 18.9319C9.75672 18.6526 8.27393 17.6142 7.55462 16.0836C6.82841 14.5409 6.98857 12.7433 7.9909 11.1517C8.21732 10.7925 8.2546 10.3166 8.28773 9.895C8.31949 9.50185 8.31258 9.10464 8.30568 8.64371C8.30292 8.49323 8.30154 8.33462 8.30016 8.16652C8.46169 8.25193 8.61494 8.3292 8.76543 8.40376C9.18376 8.61389 9.5441 8.79555 9.84093 9.0355C10.3821 9.47338 10.9123 9.57642 11.6164 9.37984C13.6542 8.81453 15.4697 8.8064 17.1693 9.35544C17.7919 9.55608 18.2558 9.38391 18.7598 9.06262C19.1657 8.80368 19.6088 8.58135 20.0769 8.34682C20.2301 8.26955 20.3875 8.19092 20.5504 8.10687C20.5491 8.28988 20.5477 8.46341 20.5463 8.63016C20.5408 9.15209 20.5366 9.60217 20.5615 10.0536C20.5822 10.4102 20.607 10.8521 20.8335 11.1381C21.7571 12.3 21.9987 13.676 21.5942 15.4709C21.1289 17.5328 19.457 18.8343 17.1237 18.9509C16.6226 18.9753 16.0317 19.0824 15.9046 19.6911C15.8328 20.0368 15.9364 20.4055 16.0386 20.762C16.0551 20.819 16.0703 20.8746 16.0855 20.9301C16.1242 21.0752 16.1973 21.2067 16.2677 21.3355C16.3492 21.4846 16.4279 21.6256 16.4362 21.7612C16.548 23.3839 16.6281 24.9714 16.6736 26.4816C16.693 27.0984 16.8752 27.5363 17.2162 27.7817C17.415 27.9254 17.6608 27.9959 17.9493 27.9959C18.1426 27.9959 18.3566 27.9634 18.5886 27.8983C25.8217 25.8824 30.3335 18.3462 28.6464 11.1043ZM18.5499 27.7722C17.4496 28.08 16.8462 27.6055 16.8117 26.4803C16.7648 24.9036 16.6819 23.3283 16.5742 21.7544C16.5535 21.4629 16.2995 21.1945 16.2194 20.8976C16.1159 20.5126 15.964 20.0869 16.0413 19.7209C16.1462 19.2193 16.6336 19.1136 17.132 19.0878C19.4846 18.9699 21.2463 17.6426 21.7295 15.502C22.0802 13.9457 22.0222 12.4125 20.9439 11.0568C20.7465 10.8074 20.7203 10.3912 20.7009 10.0482C20.665 9.40018 20.6899 8.74946 20.6899 7.88454C19.9416 8.27768 19.2844 8.57051 18.6852 8.95145C18.2117 9.25241 17.7878 9.41373 17.2121 9.22801C15.3386 8.62202 13.4485 8.73183 11.5778 9.2497C10.9427 9.42594 10.4526 9.35544 9.92791 8.93112C9.46955 8.55966 8.88692 8.33462 8.16072 7.93606C8.16072 8.73861 8.19385 9.31477 8.14967 9.8828C8.11792 10.2881 8.08064 10.7477 7.87217 11.0785C5.72668 14.4826 7.56981 18.4615 11.5985 19.0634C12.9667 19.2681 13.2124 19.767 12.6533 20.9898C12.413 21.5144 12.2902 22.1028 12.1921 22.6749C12.0499 23.5046 11.731 23.8652 10.8902 23.9913C8.80547 24.3031 7.2495 23.4341 5.96138 21.9062C5.561 21.4317 5.08607 21.0088 4.60285 20.6116C4.14586 20.236 3.94705 19.6531 4.23836 19.1718C4.54901 18.6594 5.0626 18.41 5.58033 18.7313C6.26236 19.1556 6.95129 19.6436 7.45936 20.2482C8.45617 21.4345 8.9601 21.8384 10.0494 21.875C10.1115 21.6324 10.1778 21.3789 10.2261 21.1877C9.35496 20.7214 8.47136 20.3689 7.72858 19.8293C4.77543 17.6833 3.94981 13.8414 5.64246 10.5444C5.8178 10.2014 5.86336 9.78654 5.92687 9.39747C6.07183 8.51221 6.15743 7.61747 6.33001 6.739C6.46393 6.05845 6.96648 5.78867 7.65679 5.8307C8.77924 5.90119 9.80366 6.24825 10.7742 6.80949C11.0338 6.95997 11.4273 7.02233 11.7227 6.96133C13.5023 6.58716 15.2709 6.54378 17.0588 6.91388C17.3515 6.97488 17.705 6.86914 18.0032 6.76611C18.9503 6.4394 19.8656 6.011 20.8293 5.74529C21.8399 5.46602 22.3245 5.79952 22.6283 6.78916C22.7139 7.06843 22.8492 7.36667 22.8202 7.64187C22.6117 9.62115 23.8681 11.2859 24.0337 13.1703C24.383 17.1573 22.7139 19.6694 18.8978 21.0237C18.8578 21.0372 18.826 21.0725 18.7915 21.0969C18.9033 22.4607 19.0166 23.8204 19.1325 25.2358C20.3613 24.806 21.4534 24.1444 22.4005 23.2944C26.0798 19.9947 27.4922 15.9182 26.2055 11.1761C24.9422 6.52616 21.7626 3.57758 16.9622 2.59065C10.1391 1.19024 3.77724 5.50398 2.51673 12.2159C1.43294 17.9856 5.04879 23.8096 10.835 25.6181C10.9661 25.6587 11.0987 25.6953 11.2285 25.7414C11.9188 25.9854 12.2128 26.4762 12.0347 27.0862C11.858 27.6949 11.3265 27.9851 10.6237 27.8007C8.6177 27.2747 6.81461 26.3488 5.2476 25.0134C1.71182 22.0011 0.0219394 18.1768 0.144815 13.5865C0.322915 6.89897 5.96138 1.03027 12.7223 0.235852C20.0382 -0.623643 26.8834 4.13882 28.5125 11.1354C30.1775 18.2852 25.7443 25.7631 18.5499 27.7722ZM3.99399 19.908C2.69069 17.6101 2.15224 14.9069 2.65203 12.2403C3.26226 8.9867 5.09297 6.21164 7.80452 4.42487C10.4719 2.66792 13.7136 2.06465 16.9332 2.72486C21.6674 3.69688 24.8276 6.6319 26.0715 11.2127C27.3183 15.8057 26.0522 19.8375 22.308 23.1955C21.3995 24.0102 20.3737 24.6325 19.2554 25.0487L18.9351 21.1593C18.9392 21.1565 18.942 21.1538 18.9448 21.1538C22.8119 19.7819 24.5211 17.1668 24.1704 13.1622C24.0986 12.3433 23.8225 11.5584 23.5561 10.7992C23.204 9.79875 22.8409 8.76437 22.9569 7.65814C22.9831 7.41412 22.8989 7.1701 22.8188 6.93286C22.7981 6.87185 22.7774 6.81085 22.7594 6.7512C22.4267 5.66666 21.8372 5.32775 20.7907 5.6165C20.1901 5.7819 19.6019 6.01236 19.0331 6.23469C18.6811 6.37297 18.3166 6.51531 17.9562 6.64003C17.6525 6.74442 17.3377 6.8339 17.0864 6.78238C15.3358 6.41906 13.5714 6.43533 11.6937 6.82983C11.4328 6.88541 11.0752 6.82712 10.8446 6.69426C9.80504 6.09099 8.76543 5.76563 7.66645 5.69649C6.85879 5.64768 6.33415 6.00694 6.19609 6.71324C6.09254 7.2406 6.01937 7.78015 5.94758 8.30209C5.89925 8.65456 5.84955 9.01924 5.79157 9.37578L5.76533 9.53846C5.71425 9.86653 5.66179 10.2068 5.51958 10.4834C3.77862 13.8752 4.65393 17.7633 7.64712 19.9392C8.1621 20.3133 8.73091 20.5926 9.33286 20.8881C9.57309 21.0061 9.82161 21.1281 10.066 21.2569L9.9431 21.7341C8.98771 21.6771 8.51554 21.2921 7.56567 20.1615C7.01066 19.5013 6.25269 18.9888 5.65488 18.616C5.41328 18.4655 5.15234 18.4167 4.90106 18.4764C4.60009 18.5469 4.32396 18.7692 4.12239 19.1027C3.9719 19.3494 3.93325 19.6314 3.99399 19.908Z" fill="black"/>
<path d="M28.5126 11.1342C26.8835 4.13895 20.0384 -0.624877 12.7225 0.234617C5.96154 1.0304 0.323074 6.89909 0.144974 13.5866C0.0220982 18.1756 1.71336 22.0013 5.24914 25.0135C6.81477 26.3475 8.61924 27.2748 10.6253 27.8008C11.3294 27.9852 11.8596 27.6951 12.0363 27.0864C12.2144 26.475 11.9217 25.9842 11.23 25.7415C11.1002 25.6955 10.9677 25.6602 10.8365 25.6182C5.04895 23.8097 1.43448 17.9858 2.51827 12.216C3.77739 5.50411 10.1393 1.19036 16.9623 2.59213C21.7628 3.57905 24.9424 6.52628 26.2056 11.1776C27.4937 15.9197 26.08 19.9962 22.4006 23.2959C21.4535 24.1459 20.3614 24.8075 19.1327 25.2372C19.0167 23.8219 18.9035 22.4622 18.7917 21.0984C18.8262 21.074 18.8579 21.0401 18.898 21.0252C22.7126 19.6722 24.3832 17.1588 24.0339 13.1718C23.8682 11.2874 22.6132 9.62127 22.8203 7.64335C22.8493 7.36815 22.714 7.0699 22.6284 6.79064C22.3247 5.801 21.8401 5.4675 20.8295 5.74677C19.8658 6.01248 18.9504 6.44087 18.0033 6.76759C17.7051 6.87062 17.3517 6.97501 17.059 6.91536C15.2725 6.54526 13.5025 6.58864 11.7229 6.96281C11.4274 7.02517 11.0353 6.96281 10.7744 6.81097C9.8052 6.24972 8.78077 5.90267 7.65695 5.83218C6.96663 5.7888 6.46409 6.05858 6.33017 6.74048C6.15759 7.61895 6.07199 8.51505 5.92702 9.39894C5.86352 9.78667 5.81796 10.2029 5.64262 10.5458C3.94997 13.8428 4.77559 17.6848 7.72874 19.8308C8.47151 20.3704 9.35511 20.7229 10.2263 21.1892C10.1766 21.3804 10.1117 21.6339 10.0496 21.8765C8.96026 21.8399 8.45633 21.4359 7.45952 20.2497C6.95145 19.6451 6.26252 19.1571 5.58049 18.7327C5.06275 18.4114 4.54916 18.6609 4.23852 19.1733C3.94721 19.6546 4.14602 20.2375 4.60301 20.613C5.08623 21.0103 5.56116 21.4332 5.96154 21.9077C7.24966 23.4356 8.80562 24.3032 10.8904 23.9927C11.7312 23.8667 12.0501 23.506 12.1923 22.6764C12.2903 22.1043 12.4132 21.5159 12.6534 20.9913C13.2126 19.7685 12.9654 19.2696 11.5986 19.0649C7.56997 18.4616 5.72545 14.4827 7.87232 11.08C8.0808 10.7492 8.11669 10.291 8.14983 9.88428C8.19539 9.31489 8.16087 8.74009 8.16087 7.93753C8.88708 8.3361 9.46971 8.56114 9.92807 8.93259C10.4541 9.35827 10.9442 9.42741 11.5779 9.25118C13.4473 8.73195 15.3374 8.6235 17.2122 9.22949C17.788 9.41521 18.2118 9.25389 18.6854 8.95293C19.2846 8.57199 19.9404 8.27916 20.69 7.88602C20.69 8.75093 20.6638 9.40166 20.7011 10.0497C20.7204 10.3927 20.7466 10.8088 20.9441 11.0583C22.0223 12.4153 22.0817 13.9486 21.7296 15.5035C21.2464 17.6455 19.4834 18.9713 17.1322 19.0893C16.6338 19.1137 16.1464 19.2194 16.0415 19.7224C15.9655 20.0884 16.116 20.5141 16.2196 20.8991C16.2997 21.196 16.5551 21.4644 16.5744 21.7559C16.6835 23.3298 16.7649 24.9051 16.8119 26.4817C16.8464 27.6056 17.4497 28.0801 18.5501 27.7737C25.7445 25.7632 30.1777 18.2854 28.5126 11.1342ZM18.5128 27.6408C18.0213 27.7778 17.6402 27.752 17.3793 27.5649C17.1101 27.3711 16.9665 27.005 16.9499 26.475C16.9044 24.9607 16.8243 23.3691 16.7125 21.7437C16.6987 21.5498 16.6034 21.3763 16.5109 21.2068C16.446 21.0875 16.3839 20.975 16.3535 20.8611C16.3383 20.8042 16.3217 20.7473 16.3052 20.689C16.2127 20.3636 16.1174 20.026 16.1768 19.7454C16.2486 19.4038 16.5261 19.252 17.1391 19.2208C19.6049 19.0974 21.3707 17.7173 21.8649 15.5279C22.2888 13.6476 22.0306 12.1998 21.0531 10.9688C20.8792 10.7505 20.8557 10.3371 20.8391 10.0361C20.8143 9.59416 20.8184 9.14815 20.824 8.63028C20.8267 8.39711 20.8295 8.14902 20.8295 7.87924V7.65284L20.6265 7.75994C20.3932 7.88195 20.1695 7.99447 19.9542 8.10292C19.4792 8.34152 19.0305 8.56656 18.6122 8.83228C18.1621 9.11832 17.7783 9.26202 17.2578 9.09392C15.5044 8.52725 13.635 8.53403 11.5434 9.11425C10.929 9.28507 10.4872 9.19966 10.0178 8.82143C9.69751 8.5625 9.32474 8.37406 8.8926 8.15715C8.68275 8.05141 8.46599 7.94296 8.22991 7.81281L8.02419 7.70029V7.93075C8.02419 8.18833 8.02833 8.42286 8.0311 8.64113C8.038 9.09528 8.04352 9.48706 8.01315 9.86665C7.98277 10.2571 7.94688 10.699 7.75635 11.0013C6.70432 12.6715 6.53864 14.5613 7.30351 16.1895C8.06285 17.8055 9.62157 18.8995 11.5793 19.1923C12.2227 19.2886 12.5872 19.4485 12.7252 19.6966C12.8633 19.9447 12.8011 20.3365 12.5292 20.9289C12.2807 21.4725 12.155 22.0758 12.0584 22.6479C11.9217 23.4464 11.6331 23.7392 10.8724 23.8531C9.00305 24.131 7.47747 23.4844 6.07061 21.8155C5.63295 21.2963 5.10417 20.8408 4.69413 20.5032C4.32826 20.2023 4.08251 19.6939 4.36002 19.237C4.52293 18.9673 4.73831 18.7897 4.96611 18.7368C5.14559 18.6948 5.32783 18.73 5.5087 18.8425C6.08994 19.2045 6.82581 19.7007 7.35459 20.3311C8.38315 21.5566 8.91607 21.9701 10.0468 22.0067L10.1586 22.0107L10.3892 21.116L10.2953 21.0658C10.0151 20.9154 9.73202 20.7771 9.45866 20.6429C8.86775 20.3528 8.30998 20.0789 7.81434 19.7183C4.9316 17.6224 4.0908 13.874 5.76963 10.6028C5.93117 10.2883 5.98777 9.9263 6.04162 9.57789L6.06647 9.41792C6.12583 9.05867 6.17554 8.69129 6.22386 8.33746C6.29427 7.81959 6.36744 7.28274 6.46961 6.76352C6.58144 6.19143 6.98182 5.92436 7.65142 5.96503C8.70622 6.03146 9.70579 6.34462 10.7067 6.92485C10.9953 7.0916 11.426 7.16073 11.7533 7.0916C13.5922 6.70523 15.3194 6.68896 17.0314 7.04415C17.3489 7.10922 17.7079 7.01025 18.0503 6.89231C18.4175 6.76623 18.7834 6.62253 19.1382 6.4829C19.7001 6.26328 20.2827 6.03553 20.8681 5.87285C21.7793 5.62205 22.2046 5.87014 22.4973 6.82453C22.5166 6.88689 22.5373 6.94925 22.5594 7.01297C22.6298 7.22174 22.7044 7.43729 22.6837 7.62437C22.5608 8.79025 22.9349 9.85309 23.2967 10.882C23.5576 11.625 23.8282 12.3936 23.8972 13.1799C24.241 17.0991 22.6381 19.5502 18.8524 20.8937C18.8027 20.9113 18.7668 20.9411 18.7378 20.9642C18.7295 20.9709 18.7213 20.9777 18.713 20.9831L18.6495 21.0279L19.0112 25.4189L19.181 25.3592C20.3987 24.9322 21.5143 24.2706 22.4959 23.3895C26.323 19.9569 27.6166 15.8343 26.3409 11.1356C25.0694 6.45036 21.836 3.44755 16.9927 2.45249C13.6986 1.77601 10.3823 2.3942 7.6528 4.19182C4.87775 6.02739 3.00563 8.86617 2.38158 12.1916C1.85142 15.0155 2.42024 17.9559 3.98311 20.4734C5.54459 22.9895 7.96483 24.8631 10.7951 25.747C10.8393 25.7605 10.8821 25.7741 10.9263 25.7863C11.0119 25.812 11.0988 25.8378 11.1831 25.8676C11.8043 26.0872 12.0611 26.5061 11.9024 27.0484C11.7422 27.5988 11.2769 27.8306 10.6598 27.6693C8.66204 27.1447 6.87275 26.2174 5.33888 24.9105C1.86247 21.9484 0.161541 18.1403 0.283036 13.5893C0.458375 6.97772 5.92979 1.17003 12.739 0.370184C19.9017 -0.473042 26.7717 4.26909 28.3787 11.1654C30.0327 18.2691 25.6064 25.6602 18.5128 27.6408Z" fill="black"/>
</g>
<defs>
<clipPath id="clip0_4_172">
<rect width="29" height="28" fill="white"/>
</clipPath>
</defs>
</svg>
