<svg width="17" height="14" viewBox="0 0 17 14" fill="none" xmlns="http://www.w3.org/2000/svg">
<path fill-rule="evenodd" clip-rule="evenodd" d="M1.51278 13.529C0.677294 13.2688 0.368034 12.714 0.822026 12.2898L13.1524 0.76831C13.6064 0.344102 14.6517 0.211167 15.4872 0.471391C16.3227 0.731615 16.632 1.28646 16.178 1.71066L3.84758 13.2321C3.39359 13.6563 2.34826 13.7893 1.51278 13.529Z" fill="#09213D"/>
<path fill-rule="evenodd" clip-rule="evenodd" d="M15.4872 13.5288C14.6518 13.789 13.6064 13.6561 13.1524 13.2319L0.822038 1.71045C0.368046 1.28624 0.677306 0.731399 1.51279 0.471175C2.34827 0.210951 3.3936 0.343886 3.84759 0.768095L16.178 12.2895C16.632 12.7138 16.3227 13.2686 15.4872 13.5288Z" fill="#09213D"/>
</svg>
