<svg width="66" height="63" viewBox="0 0 66 63" fill="none" xmlns="http://www.w3.org/2000/svg">
<g clip-path="url(#clip0_4_262)">
<path d="M39.0281 46.6191C40.6183 46.2857 42.0435 46.06 43.4276 45.683C49.894 43.9261 53.4197 39.5045 53.8424 32.8465C54.0847 29.0122 53.5306 25.4473 50.9558 22.3901C50.7239 22.1131 50.6981 21.5207 50.8012 21.1334C51.4043 18.8713 51.1827 16.6733 50.5641 14.4471C50.2729 13.4007 49.6672 13.0673 48.7858 13.4007C46.559 14.2394 44.3863 15.2217 42.1621 16.0706C41.5023 16.322 40.6982 16.5374 40.0384 16.4015C35.2163 15.4089 30.4251 15.3884 25.6132 16.463C25.0669 16.5861 24.3865 16.3912 23.8375 16.1732C21.5823 15.2858 19.371 14.2907 17.1107 13.4213C16.085 13.0263 15.4587 13.4597 15.1649 14.5856C14.603 16.7349 14.3788 18.8816 14.9973 21.0257C15.2035 21.7387 15.1288 22.1952 14.6468 22.7389C9.92006 28.0684 11.402 40.2509 18.1391 43.9672C20.5411 45.2931 23.0926 46.0497 25.7937 46.3985C26.0797 46.4344 26.3607 46.5242 26.4715 46.5524C25.9483 47.8809 25.4741 49.1761 24.92 50.438C24.7885 50.7381 24.4406 51.0227 24.1236 51.151C20.6932 52.5436 17.5489 51.4613 15.3427 48.4375C14.469 47.2372 13.2422 46.2216 11.9999 45.3829C11.0747 44.7597 9.86336 44.5058 8.51286 45.4496C9.01801 45.9394 9.39172 46.4447 9.88914 46.755C11.5592 47.8014 12.6185 49.3095 13.4046 51.0561C15.0592 54.7442 17.6339 56.3522 21.7138 56.2163C22.6519 56.1855 23.5901 56.0701 24.7112 55.9778C24.7112 57.8783 24.7834 59.8198 24.6828 61.751C24.6313 62.7538 23.5231 63.3232 22.3813 62.7974C19.4406 61.4407 16.3298 60.2635 13.7267 58.404C4.03609 51.487 -0.7113 41.9128 0.09024 30.0766C1.06446 15.6218 11.2268 4.25491 25.5411 0.872034C41.9095 -2.99558 58.8733 6.32465 64.2831 22.1567C69.9557 38.7608 60.6929 57.1858 43.9224 62.6564C41.8837 63.3206 41.0075 62.6871 41.0178 60.5353C41.0255 58.5271 41.0358 56.519 41.0719 54.5108C41.1209 51.7229 41.1544 48.9453 39.0281 46.6191Z" fill="black"/>
</g>
<defs>
<clipPath id="clip0_4_262">
<rect width="65.9531" height="63" fill="white"/>
</clipPath>
</defs>
</svg>
