<svg width="63" height="63" viewBox="0 0 63 63" fill="none" xmlns="http://www.w3.org/2000/svg">
<g clip-path="url(#clip0_4_257)">
<path d="M3.22382e-07 31.4668C0.00246155 14.093 14.1274 -0.0024609 31.5332 3.2227e-07C48.9612 0.00246155 63.0148 14.1397 63 31.6538C62.9852 48.9636 48.7963 63.0148 31.3462 63C14.0881 62.9852 -0.0024609 48.811 3.22382e-07 31.4668ZM42.3282 47.5361C44.9444 47.5361 47.4229 47.5361 49.9777 47.5361C49.9777 42.9853 49.9924 38.5231 49.9653 34.0609C49.958 33.0838 49.8891 32.0895 49.6872 31.137C48.9612 27.7331 47.2088 25.1488 43.6228 24.3243C40.1475 23.5269 37.0242 24.088 34.7254 27.1375C34.6418 27.2482 34.5064 27.3196 34.1864 27.5756C34.1864 26.4385 34.1864 25.5303 34.1864 24.6369C31.5874 24.6369 29.1458 24.6369 26.6477 24.6369C26.6477 32.3036 26.6477 39.8989 26.6477 47.5386C29.1926 47.5386 31.6686 47.5386 34.2332 47.5386C34.2332 43.3988 34.2233 39.3452 34.243 35.2915C34.2455 34.5999 34.2849 33.8911 34.4449 33.2241C34.9051 31.297 36.655 29.9827 38.5797 30.0393C40.4798 30.0959 41.671 31.1714 42.1165 33.3053C42.2568 33.9797 42.3159 34.6811 42.3208 35.3727C42.338 39.3845 42.3282 43.3988 42.3282 47.5361ZM14.76 24.6196C14.76 32.3282 14.76 39.9014 14.76 47.546C17.2975 47.546 19.776 47.546 22.2864 47.546C22.2864 39.8669 22.2864 32.2691 22.2864 24.6196C19.7612 24.6196 17.3172 24.6196 14.76 24.6196ZM18.7176 13.4334C16.2047 13.3497 14.3416 14.8929 14.2579 17.1301C14.1644 19.5569 15.8134 21.3044 18.2894 21.3979C20.8441 21.4963 22.818 19.8129 22.8648 17.4944C22.914 15.2276 21.1641 13.5146 18.7176 13.4334Z" fill="black"/>
<path d="M42.3282 47.5361C42.3282 43.3988 42.338 39.3845 42.3183 35.3703C42.3159 34.6811 42.2544 33.9772 42.1141 33.3028C41.671 31.169 40.4774 30.0934 38.5773 30.0368C36.6551 29.9802 34.9051 31.2945 34.4424 33.2216C34.2824 33.8886 34.2431 34.5975 34.2406 35.2891C34.2234 39.3427 34.2308 43.3939 34.2308 47.5361C31.6686 47.5361 29.1926 47.5361 26.6453 47.5361C26.6453 39.8989 26.6453 32.3011 26.6453 24.6344C29.1434 24.6344 31.5849 24.6344 34.184 24.6344C34.184 25.5278 34.184 26.4336 34.184 27.5731C34.504 27.3171 34.6393 27.2458 34.723 27.135C37.0218 24.0856 40.1451 23.5244 43.6203 24.3218C47.2063 25.1439 48.9587 27.7306 49.6848 31.1345C49.8866 32.087 49.9555 33.0813 49.9629 34.0584C49.99 38.5206 49.9752 42.9853 49.9752 47.5337C47.4205 47.5361 44.9445 47.5361 42.3282 47.5361Z" fill="white"/>
<path d="M14.7599 24.6196C17.3147 24.6196 19.7587 24.6196 22.2864 24.6196C22.2864 32.2691 22.2864 39.8669 22.2864 47.5459C19.7759 47.5459 17.2975 47.5459 14.7599 47.5459C14.7599 39.9014 14.7599 32.3282 14.7599 24.6196Z" fill="white"/>
<path d="M18.7176 13.4334C21.1641 13.5146 22.914 15.2301 22.8648 17.4944C22.8156 19.8129 20.8417 21.4963 18.2894 21.3979C15.8134 21.3019 14.1643 19.5569 14.2579 17.1301C14.3416 14.8929 16.2047 13.3472 18.7176 13.4334Z" fill="white"/>
</g>
<defs>
<clipPath id="clip0_4_257">
<rect width="63" height="63" fill="white"/>
</clipPath>
</defs>
</svg>
