<svg width="28" height="28" viewBox="0 0 28 28" fill="none" xmlns="http://www.w3.org/2000/svg">
<g clip-path="url(#clip0_3_134)">
<path d="M14.4492 28C14.1568 28 13.8645 28 13.5721 28C13.2878 27.8249 12.9565 27.6966 12.7264 27.4673C8.67555 23.4413 4.6452 19.3948 0.588457 15.374C-0.216882 14.576 -0.180975 13.3251 0.60238 12.5571C3.2888 9.92203 5.93418 7.24514 8.59568 4.58437C8.68801 4.49277 8.78547 4.4063 8.89539 4.30371C9.9279 5.33548 10.9465 6.34673 11.9519 7.37118C12.0178 7.43859 12.0127 7.61593 11.9856 7.72805C11.7394 8.72171 12.1102 9.66115 12.9917 10.1638C13.1859 10.2745 13.2299 10.3939 13.2299 10.5933C13.2255 12.9558 13.2233 15.3183 13.2328 17.6808C13.2335 17.9234 13.1493 18.0362 12.9448 18.1564C12.2486 18.566 11.902 19.2116 11.902 20.0045C11.902 21.0092 12.6568 21.8709 13.6439 22.0688C14.5972 22.2601 15.6012 21.7156 15.9918 20.7952C16.3889 19.8594 16.0826 18.7983 15.2231 18.2209C15.0237 18.0868 14.9629 17.9498 14.9636 17.7197C14.9717 15.418 14.9688 13.1163 14.9688 10.8146C14.9688 10.7105 14.9688 10.6057 14.9688 10.4247C15.1131 10.5544 15.2033 10.6284 15.2846 10.7098C16.0606 11.4836 16.8286 12.2662 17.6149 13.0298C17.8215 13.2299 17.8706 13.4021 17.7988 13.6886C17.4141 15.2267 18.8987 16.6344 20.4222 16.1962C21.4987 15.887 22.1795 14.7944 21.9486 13.7465C21.6929 12.5835 20.6882 11.8705 19.5194 12.0654C19.2146 12.1167 19.0365 12.042 18.8321 11.8324C17.9915 10.9685 17.1349 10.1191 16.2768 9.27277C16.1163 9.11449 16.0599 8.98112 16.1097 8.7371C16.4146 7.23488 15.0977 5.93124 13.5985 6.24561C13.3852 6.29031 13.2643 6.24634 13.1229 6.10271C12.1805 5.15082 11.2308 4.20551 10.2848 3.25728C10.2276 3.20012 10.1807 3.13197 10.1257 3.06382C11.0095 2.17714 11.872 1.30219 12.7491 0.441158C12.892 0.301195 13.084 0.188345 13.2738 0.122394C14.1129 -0.170723 14.7988 0.0740292 15.4187 0.696903C19.2593 4.55506 23.1116 8.40148 26.9646 12.2472C27.3691 12.6509 27.7692 13.0503 27.9707 13.6014C27.9707 13.8938 27.9707 14.1861 27.9707 14.4785C27.7421 15.0743 27.279 15.4854 26.8437 15.9207C23.1914 19.57 19.5414 23.2207 15.8921 26.8722C15.4568 27.3083 15.045 27.7714 14.4492 28Z" fill="black"/>
</g>
<defs>
<clipPath id="clip0_3_134">
<rect width="27.9707" height="28" fill="white"/>
</clipPath>
</defs>
</svg>
