<svg width="29" height="28" viewBox="0 0 29 28" fill="none" xmlns="http://www.w3.org/2000/svg">
<g clip-path="url(#clip0_3_74)">
<path d="M1.29069e-06 13.9595C0.00328228 6.2492 6.29404 -0.0032797 14.0481 1.29069e-06C21.7836 0.00328228 28.0252 6.3006 28.0164 14.0941C28.0077 21.776 21.6863 28.0087 13.9136 28C6.2492 27.9912 -0.0032797 21.683 1.29069e-06 13.9595ZM6.4745 6.457C6.4745 11.5196 6.4745 16.522 6.4745 21.5343C11.5163 21.5343 16.5209 21.5343 21.5321 21.5343C21.5321 16.487 21.5321 11.4725 21.5321 6.457C16.4947 6.457 11.5021 6.457 6.4745 6.457Z" fill="black"/>
<path d="M6.47449 6.45703C11.5021 6.45703 16.4936 6.45703 21.5321 6.45703C21.5321 11.4726 21.5321 16.4881 21.5321 21.5343C16.5209 21.5343 11.5163 21.5343 6.47449 21.5343C6.47449 16.5209 6.47449 11.5196 6.47449 6.45703ZM15.4983 18.9182C16.1173 20.4155 18.1133 20.6298 19.2354 20.1683C20.0294 19.8413 20.4318 19.1873 20.4078 18.3189C20.3859 17.5118 19.9966 16.9354 19.3032 16.5658C18.7913 16.2924 18.2511 16.0725 17.736 15.8046C17.3543 15.6055 17.1498 15.296 17.3761 14.864C17.5642 14.5053 18.1122 14.4189 18.4818 14.6945C18.636 14.8093 18.7378 14.9931 18.8766 15.1604C19.2835 14.8925 19.6236 14.6683 19.9605 14.4462C19.36 13.4051 18.2259 13.031 17.0929 13.4543C16.2092 13.7857 15.7269 14.6737 15.9117 15.5979C16.0648 16.3667 16.5668 16.8315 17.2329 17.1574C17.6889 17.3806 18.1767 17.5523 18.6 17.8257C18.787 17.9471 18.962 18.2763 18.9357 18.4862C18.9106 18.6919 18.6535 18.9642 18.4436 19.0287C18.1537 19.1184 17.7764 19.1282 17.5008 19.0156C17.1487 18.8712 16.861 18.5705 16.5198 18.3189C16.207 18.5037 15.8494 18.7126 15.4983 18.9182ZM10.4521 19.0746C10.9618 20.1366 11.9833 20.5839 13.1962 20.328C14.128 20.1311 14.6573 19.418 14.6693 18.3156C14.6792 17.4429 14.6726 16.5701 14.6726 15.6963C14.6726 14.9384 14.6726 14.1805 14.6726 13.4116C14.1651 13.4116 13.7244 13.4116 13.2486 13.4116C13.2486 15.0554 13.2486 16.6544 13.2486 18.2533C13.2486 18.6164 13.1983 18.9478 12.7838 19.0801C12.3825 19.2081 12.0741 19.0659 11.8192 18.7608C11.7274 18.6503 11.6453 18.5322 11.5502 18.4053C11.1805 18.6306 10.8262 18.8472 10.4521 19.0746Z" fill="white"/>
<path d="M15.4984 18.9182C15.8494 18.7126 16.207 18.5037 16.5198 18.3199C16.8611 18.5726 17.1487 18.8733 17.5009 19.0166C17.7765 19.1293 18.1538 19.1194 18.4436 19.0297C18.6536 18.9641 18.9106 18.6929 18.9357 18.4873C18.962 18.2773 18.7881 17.9481 18.6 17.8267C18.1767 17.5533 17.689 17.3816 17.2329 17.1585C16.5669 16.8326 16.0649 16.3677 15.9118 15.5989C15.728 14.6737 16.2092 13.7856 17.0929 13.4553C18.226 13.031 19.3601 13.4061 19.9605 14.4473C19.6237 14.6693 19.2824 14.8935 18.8767 15.1614C18.7389 14.9941 18.6361 14.8104 18.4819 14.6955C18.1122 14.4199 17.5643 14.5052 17.3762 14.8651C17.1498 15.297 17.3543 15.6077 17.736 15.8056C18.2511 16.0736 18.7914 16.2934 19.3032 16.5668C19.9966 16.9365 20.3859 17.5139 20.4078 18.3199C20.4319 19.1883 20.0294 19.8423 19.2354 20.1693C18.1133 20.6298 16.1174 20.4154 15.4984 18.9182Z" fill="black"/>
<path d="M10.4521 19.0746C10.8262 18.8471 11.1805 18.6306 11.5502 18.4064C11.6464 18.5333 11.7285 18.6514 11.8192 18.7618C12.073 19.067 12.3825 19.2091 12.7838 19.0812C13.1983 18.9488 13.2486 18.6186 13.2486 18.2544C13.2476 16.6554 13.2486 15.0565 13.2486 13.4127C13.7244 13.4127 14.1651 13.4127 14.6726 13.4127C14.6726 14.1816 14.6726 14.9395 14.6726 15.6974C14.6726 16.5701 14.6781 17.444 14.6693 18.3167C14.6573 19.418 14.128 20.1322 13.1962 20.3291C11.9833 20.5839 10.9607 20.1377 10.4521 19.0746Z" fill="black"/>
</g>
<defs>
<clipPath id="clip0_3_74">
<rect width="28.0175" height="28" fill="white"/>
</clipPath>
</defs>
</svg>
