<svg width="18" height="18" viewBox="0 0 18 18" fill="none" xmlns="http://www.w3.org/2000/svg">
<path d="M3.22205 1.61183C3.22183 2.0391 3.0519 2.44879 2.74962 2.75076C2.44735 3.05274 2.03749 3.22226 1.61022 3.22205C1.18295 3.22184 0.773259 3.0519 0.471289 2.74962C0.169311 2.44735 -0.000217279 2.03749 2.09004e-07 1.61022C0.000217697 1.18295 0.170149 0.773267 0.472425 0.471289C0.774701 0.169319 1.18456 -0.000209239 1.61183 1.93818e-07C2.0391 0.000217682 2.44879 0.170156 2.75076 0.472433C3.05274 0.774709 3.22226 1.18456 3.22205 1.61183ZM3.27038 4.41501H0.0483311V14.5H3.27038V4.41501ZM8.36119 4.41501H5.15528V14.5H8.32897V9.20779C8.32897 6.25962 12.1713 5.98574 12.1713 9.20779V14.5H15.353V8.11229C15.353 3.1423 9.66612 3.32757 8.32897 5.76825L8.36119 4.41501Z" fill="white"/>
</svg>
