<svg width="17" height="14" viewBox="0 0 17 14" fill="none" xmlns="http://www.w3.org/2000/svg">
<path fill-rule="evenodd" clip-rule="evenodd" d="M0.5 1C0.5 0.447715 0.921379 3.68381e-08 1.44118 8.22803e-08L15.5588 1.31648e-06C16.0786 1.36193e-06 16.5 0.447717 16.5 1C16.5 1.55229 16.0786 2 15.5588 2L1.44118 2C0.921379 2 0.5 1.55228 0.5 1Z" fill="#09213D"/>
<path fill-rule="evenodd" clip-rule="evenodd" d="M0.5 7C0.5 6.44772 0.921379 6 1.44118 6L15.5588 6C16.0786 6 16.5 6.44772 16.5 7C16.5 7.55229 16.0786 8 15.5588 8L1.44118 8C0.921379 8 0.5 7.55228 0.5 7Z" fill="#09213D"/>
<path fill-rule="evenodd" clip-rule="evenodd" d="M0.5 13C0.5 12.4477 0.921379 12 1.44118 12L15.5588 12C16.0786 12 16.5 12.4477 16.5 13C16.5 13.5523 16.0786 14 15.5588 14L1.44118 14C0.921379 14 0.5 13.5523 0.5 13Z" fill="#09213D"/>
</svg>
