<svg width="46" height="33" viewBox="0 0 46 33" fill="none" xmlns="http://www.w3.org/2000/svg">
<g clip-path="url(#clip0_4_314)">
<path d="M45.9657 17.2544C45.9408 17.2337 45.9046 17.2272 45.8764 17.2368C45.8421 17.2474 45.8105 17.2566 45.7808 17.2654L45.7662 17.2696C45.6929 17.2912 45.6296 17.3096 45.5668 17.3349C44.5754 17.7305 43.7948 18.4084 43.1805 19.407C43.0289 19.6538 42.9113 19.9102 42.8177 20.1661C42.9712 19.3057 43.0068 18.9705 43.034 18.0078C43.0352 17.9674 43.0352 17.9263 43.0352 17.8855C43.0352 17.7742 43.0352 17.6689 43.0595 17.5729C43.0885 17.4592 43.1469 17.3457 43.2035 17.236C43.2194 17.2049 43.2353 17.1738 43.2484 17.1466C43.2529 17.1411 43.2677 17.1321 43.2734 17.1312C43.5569 17.0878 43.8077 16.9668 44.0401 16.7617C44.2743 16.5539 44.4669 16.2996 44.6128 16.0057C45.1359 14.9519 45.3977 13.7873 45.3911 12.5444C45.3905 12.4245 45.3765 12.3077 45.3611 12.1808C45.354 12.1239 45.3469 12.0657 45.341 12.0055C45.3377 11.9724 45.3174 11.9431 45.288 11.9288C45.2591 11.9147 45.2241 11.9157 45.1949 11.9334C45.1771 11.9446 45.162 11.9536 45.1483 11.9616C45.1217 11.9775 45.1014 11.9899 45.0823 12.0038C44.636 12.3251 44.2423 12.7251 43.9121 13.1924C43.3733 13.9562 43.0599 14.8199 42.9756 15.7699C42.9671 15.664 42.9587 15.5581 42.9502 15.4522L42.9472 15.4138C42.9141 14.9986 42.8799 14.5692 42.852 14.147C42.845 14.0401 42.8246 13.9361 42.8048 13.8354C42.7667 13.642 42.7306 13.4592 42.7883 13.2677C42.8014 13.2244 42.8125 13.1809 42.8236 13.1375C42.8508 13.0297 42.9826 12.8639 43.1849 12.6825L43.1925 12.6757C43.2671 12.6122 43.6504 12.26 43.8678 11.5634C44.0884 10.8557 44.0717 10.1162 44.0596 9.57629L44.0593 9.5619C44.0431 8.8196 43.9632 8.26032 43.8004 7.74803C43.7793 7.68255 43.7543 7.61794 43.7279 7.55003C43.7141 7.51472 43.7001 7.47815 43.6857 7.43994C43.6738 7.4076 43.6453 7.3841 43.612 7.37849L43.5957 7.37704C43.5669 7.37704 43.5398 7.39004 43.5216 7.41248L43.3633 7.60613C42.6047 8.53534 42.2321 9.6252 42.2554 10.8455C42.2595 11.0604 42.2754 11.2808 42.3038 11.5084C42.111 10.8401 41.8849 10.1896 41.6278 9.56375C41.6224 9.55009 41.619 9.53306 41.6186 9.51867L41.6168 9.43314C41.6141 9.30965 41.6113 9.18194 41.6166 9.05628C41.6174 9.03542 41.6308 8.998 41.6588 8.96117C41.6985 8.90844 41.7426 8.85696 41.7882 8.80337C41.866 8.71242 41.9463 8.61857 42.01 8.51132C42.215 8.16653 42.3113 7.75918 42.3128 7.2292C42.3156 6.60537 42.2198 5.94891 42.0111 5.16309C41.8971 4.7344 41.7249 4.17747 41.4043 3.67255C41.3826 3.6386 41.3583 3.60664 41.3324 3.57279C41.3207 3.5578 41.3085 3.54183 41.296 3.52465C41.2778 3.50013 41.2527 3.48584 41.2122 3.48584C41.1799 3.48823 41.151 3.50669 41.1349 3.53537C40.7325 4.26482 40.532 5.04408 40.5226 5.91775C40.5144 6.64622 40.6277 7.27302 40.7697 7.76842C40.4083 7.10525 40.0067 6.46456 39.5714 5.8568L39.5614 5.843C39.5515 5.8298 39.5473 5.82335 39.548 5.82792C39.5206 5.63129 39.5016 5.47397 39.4885 5.33699C39.4888 5.33491 39.4914 5.32339 39.5118 5.28925C39.5405 5.24002 39.572 5.19178 39.6055 5.14076C39.6728 5.03813 39.7421 4.93192 39.7866 4.81301C39.9208 4.4541 39.9509 4.04704 39.8785 3.56902C39.7195 2.51104 39.2551 1.55836 38.4591 0.656413C38.3772 0.563806 38.2867 0.481918 38.1909 0.395366L38.1644 0.371246C38.127 0.337201 38.0885 0.302362 38.0497 0.265537C38.025 0.241915 37.9896 0.233081 37.9553 0.243205C37.9229 0.253528 37.8979 0.280525 37.8902 0.314074L37.8728 0.390701C37.861 0.441521 37.8518 0.481621 37.8449 0.52192C37.7378 1.16412 37.7456 1.85197 37.869 2.62498C37.9913 3.39165 38.2351 4.0529 38.6092 4.6273C38.0482 3.96347 37.5026 3.40604 36.9323 2.91203C36.9298 2.90866 36.926 2.89844 36.9257 2.89586C36.9703 2.51024 36.8756 2.14696 36.636 1.78527C36.3215 1.30992 35.8844 0.947637 35.3369 0.708624C35.0093 0.56589 34.6698 0.439536 34.3374 0.315762C34.1782 0.256406 34.019 0.197248 33.8551 0.133823C33.6903 0.0680159 33.6198 0.0563032 33.5816 0.0918373C33.5323 0.137893 33.5442 0.177199 33.5657 0.248664L33.5726 0.27199C33.7735 0.951702 34.0401 1.48928 34.3879 1.91539C35.0264 2.69843 35.773 3.09626 36.6694 3.13139C36.7008 3.13328 36.7257 3.14201 36.7359 3.14996C36.8621 3.24485 36.9549 3.32078 37.0371 3.39601C37.2968 3.63443 37.5526 3.88843 37.8028 4.15593C37.4307 3.92367 36.9757 3.81885 36.4634 3.84486C36.1831 3.85905 35.9048 3.90034 35.6356 3.94024L35.6253 3.94183C35.5458 3.95354 35.4667 3.96516 35.3877 3.97637C35.2147 3.9999 35.0404 4.03067 34.8864 4.05766C34.824 4.06888 34.6751 4.10292 34.6408 4.17548C34.629 4.20029 34.63 4.22749 34.6434 4.25221C34.6553 4.27375 34.6683 4.29399 34.6825 4.31246C35.127 4.89162 35.634 5.27307 36.2324 5.47843C36.9622 5.73015 37.6325 5.7094 38.2347 5.41332C38.3268 5.3624 38.4379 5.3366 38.5647 5.3366C38.6606 5.3366 38.7324 5.35178 38.7562 5.35724C38.7919 5.36319 38.8403 5.38325 38.8502 5.39615C39.2248 5.89075 39.5802 6.419 39.9122 6.97391C39.6318 6.70001 39.266 6.51528 38.7677 6.39497C38.3309 6.29046 37.8845 6.26802 37.4528 6.24619L37.3082 6.23884C37.1728 6.23189 37.0374 6.22326 36.898 6.21442L36.6642 6.19994C36.6339 6.19994 36.6052 6.21462 36.5875 6.23904C36.5681 6.26534 36.5634 6.29949 36.5749 6.33016C36.5843 6.35577 36.6014 6.40093 36.6101 6.41602C37.0655 7.18089 37.6001 7.70994 38.2445 8.03354C38.8744 8.34955 39.4435 8.43311 40.0176 8.29523C40.0841 8.27919 40.161 8.27061 40.2406 8.27061C40.4848 8.27061 40.6551 8.34546 40.6909 8.41476C41.0067 9.06915 41.2885 9.74915 41.5317 10.4428C41.2767 10.0897 40.9201 9.803 40.4687 9.5885C40.0202 9.37585 39.5532 9.18155 39.0938 8.99028C38.8963 8.90824 38.6981 8.826 38.5007 8.74179C38.4714 8.72892 38.4367 8.73162 38.4093 8.74977C38.3825 8.76773 38.3664 8.79769 38.3664 8.82996C38.3664 8.89187 39.0217 10.7184 39.9733 11.438C40.3614 11.7317 40.8396 12.0337 41.4426 12.0479C41.623 12.0516 41.8096 12.0772 41.9505 12.2381C41.972 12.2637 42.0006 12.2836 42.0318 12.2942C42.0799 12.3101 42.0931 12.3397 42.1169 12.4406C42.3121 13.264 42.4543 14.1127 42.5419 14.9746C42.5154 14.8871 42.4847 14.7988 42.4494 14.7094C42.2364 14.1669 41.878 13.6922 41.3214 13.2155C41.0345 12.9688 40.734 12.7299 40.4435 12.4987L40.4297 12.4878C40.2973 12.3825 40.1653 12.2775 40.0337 12.1713C40.0065 12.1494 39.98 12.1268 39.9493 12.1004L39.8671 12.0297C39.8384 12.0053 39.7956 12.0002 39.762 12.0171C39.7275 12.0347 39.7069 12.071 39.7095 12.1098C39.7136 12.168 39.7168 12.2232 39.7199 12.2761L39.7215 12.3008C39.728 12.4097 39.7341 12.5124 39.7451 12.6138C39.8481 13.6016 40.1405 14.4262 40.6391 15.1348C40.9477 15.5728 41.3905 16.1082 42.0809 16.3614C42.2489 16.4233 42.3707 16.5171 42.5013 16.6855C42.6244 16.8431 42.6474 16.9871 42.6446 17.1683C42.6329 17.9276 42.579 18.6807 42.484 19.4183C42.4617 19.2131 42.4147 19.0018 42.3425 18.7822C42.193 18.3276 41.9599 17.8856 41.6299 17.431C41.3451 17.0373 41.0488 16.6423 40.7621 16.26L40.743 16.2346C40.6294 16.0832 40.5158 15.9316 40.4053 15.7833C40.3845 15.7528 40.3545 15.7419 40.3373 15.7359C40.3128 15.7239 40.2835 15.7227 40.2575 15.7338C40.232 15.7447 40.2124 15.7662 40.2039 15.7926L40.2005 15.803C40.1957 15.8169 40.192 15.8292 40.19 15.8415C39.9923 17.0252 40.1136 18.0858 40.5606 19.0841C40.7789 19.5723 41.0717 20.1249 41.588 20.5226C41.8237 20.7041 42.0098 20.9588 42.112 21.2396C42.1336 21.3001 42.1328 21.3263 42.1304 21.3364C41.9119 22.2454 41.6264 23.1221 41.2795 23.9519C41.3688 23.5146 41.3627 23.0552 41.2607 22.5793C41.1159 21.9047 40.8671 21.251 40.6451 20.6912L40.5786 20.5236C40.4745 20.2612 40.3698 19.9968 40.2616 19.7227C40.2478 19.6877 40.2147 19.6638 40.1705 19.6616C40.1357 19.6616 40.1037 19.6816 40.0872 19.7139L40.0523 19.7798C40.0369 19.8087 40.0226 19.8356 40.0103 19.8634C39.5638 20.8752 39.413 21.9125 39.5624 22.9463C39.6691 23.6856 39.8499 24.215 40.1488 24.6628C40.3035 24.8942 40.4504 25.1522 40.4771 25.4692C40.4834 25.5443 40.4805 25.596 40.4471 25.6549C40.0702 26.3178 39.6477 26.9434 39.1848 27.5247C39.1866 27.5215 39.1883 27.5183 39.1901 27.5152C39.523 26.904 39.5331 26.2433 39.4991 25.6774C39.4698 25.1924 39.4144 24.708 39.3611 24.2396L39.3581 24.2126C39.3366 24.0249 39.3153 23.8374 39.2958 23.6495C39.2845 23.5431 39.272 23.4366 39.259 23.3284L39.2419 23.1822C39.2382 23.1498 39.2185 23.1218 39.1903 23.1077C39.1377 23.0802 39.0526 23.1227 38.9607 23.2319C38.3291 23.9822 37.9371 24.83 37.7956 25.752C37.6488 26.708 37.7284 27.526 38.0391 28.253C38.0474 28.2724 38.0473 28.3119 38.0471 28.3251L38.0304 28.7433C38.0279 28.7734 38.0122 28.8074 37.9991 28.82C37.3684 29.43 36.674 29.9603 35.9288 30.4017C36.2816 30.0816 36.5352 29.6638 36.6995 29.1343C36.8817 28.5475 36.9751 27.9368 37.0657 27.3446L37.0737 27.2919C37.1058 27.0838 37.1393 26.8762 37.1735 26.664L37.2122 26.4241C37.2177 26.3892 37.2039 26.3542 37.1769 26.3333C37.1502 26.3118 37.1114 26.3067 37.0806 26.32L37.0469 26.334C37.0109 26.3488 36.9796 26.362 36.95 26.3772C35.5414 27.0838 34.6141 28.7319 34.7451 30.2957C34.7657 30.5407 34.7433 30.7708 34.6767 30.9987C34.6705 31.0194 34.6505 31.0419 34.6424 31.0458C33.9734 31.3291 33.3372 31.5359 32.6971 31.6778C32.6642 31.6854 32.6381 31.7091 32.6274 31.7409C32.6166 31.773 32.6232 31.8078 32.6451 31.834C32.7147 31.9168 32.7753 32.0059 32.8251 32.0991C32.8455 32.1371 32.8943 32.1567 32.9307 32.1472C33.4522 32.0277 33.9601 31.8729 34.4407 31.687C34.4796 31.6712 34.5092 31.6638 34.537 31.6683C34.6439 31.6827 34.7569 31.7047 34.8823 31.736C34.9081 31.7423 34.9296 31.7543 34.93 31.7532C35.2039 32.3017 35.6748 32.6511 36.3698 32.8212C36.521 32.8576 36.677 32.8845 36.8333 32.901C36.997 32.9183 37.1795 32.9272 37.3757 32.9272C37.6474 32.9272 37.8412 32.9103 37.8437 32.9101C38.4461 32.8424 38.9606 32.7062 39.4163 32.4937C39.6032 32.4066 39.8163 32.2894 39.9801 32.0801C40.0114 32.04 40.0062 31.9821 39.9681 31.9484C39.5053 31.5383 39.0339 31.2402 38.527 31.0373C37.776 30.7375 37.092 30.6564 36.4214 30.7859C36.3212 30.8055 36.2233 30.8301 36.1283 30.8583C36.7556 30.4817 37.3561 30.0392 37.9233 29.535C37.9342 29.525 37.952 29.5163 37.966 29.5138C38.0588 29.4983 38.182 29.4792 38.3081 29.4701C38.3198 29.4701 38.3346 29.4758 38.3363 29.4763C38.678 29.8605 39.1183 30.0472 39.6824 30.0472C39.7111 30.0472 39.7399 30.0466 39.7687 30.0456C40.3819 30.0257 40.9984 29.8565 41.6013 29.5423C42.0396 29.3128 42.4964 29.0455 42.8667 28.6469C42.9489 28.5582 43.0222 28.458 43.0869 28.3695L43.0933 28.3609C43.1219 28.3219 43.1509 28.2826 43.1807 28.2438C43.1968 28.2229 43.2037 28.1959 43.1994 28.1686C43.1948 28.1424 43.1797 28.1191 43.154 28.1022C43.1474 28.0987 42.9906 28.0142 42.8474 27.9585C41.8886 27.5864 40.9205 27.5483 39.9971 27.8471C39.6948 27.9447 39.4102 28.0912 39.1332 28.2937C39.6456 27.6956 40.1199 27.0399 40.5506 26.3344C40.5553 26.327 40.5675 26.3068 40.5715 26.3031C40.6091 26.279 40.6477 26.2561 40.6861 26.2336C40.755 26.193 40.8264 26.1511 40.8933 26.101C40.9499 26.0587 40.9658 26.0575 41.0229 26.0945C41.1038 26.1472 41.1977 26.1746 41.2797 26.1961C41.759 26.3194 42.2422 26.2579 42.7766 26.0059C43.2648 25.7761 43.6402 25.4127 43.9732 25.0543C44.4577 24.5317 44.7742 24.0601 44.9695 23.5701C45.0105 23.4673 45.0398 23.3611 45.0702 23.2498C45.0828 23.2032 45.0956 23.1566 45.1092 23.1107C45.1242 23.0615 45.0981 23.0093 45.0496 22.9922L45.0095 22.9891C44.8119 22.9891 43.0497 23.0182 42.0189 24.0227C41.7947 24.2412 41.5937 24.4735 41.4101 24.7278C41.8179 23.8605 42.1637 22.9464 42.4424 21.9976L42.4464 21.9838C42.4498 21.9721 42.4548 21.9545 42.4582 21.9498L42.7278 21.578C42.7379 21.5631 42.7391 21.5631 42.7549 21.5631C42.7619 21.5631 42.7696 21.5636 42.7784 21.5641L42.8361 21.5676C43.0366 21.58 43.1548 21.5783 43.2519 21.5629C43.6357 21.5022 43.9822 21.308 44.311 20.9693C45.08 20.1773 45.6093 19.1891 45.9292 17.9485C45.9634 17.8156 45.973 17.6814 45.9833 17.5391C45.9878 17.4746 45.9929 17.408 46.0002 17.3394C46.0032 17.3064 45.9904 17.275 45.9657 17.2544Z" fill="white"/>
<path opacity="0.2" d="M22.9993 17.985C25.4491 17.985 27.435 15.9904 27.435 13.53C27.435 11.0695 25.4491 9.07495 22.9993 9.07495C20.5496 9.07495 18.5636 11.0695 18.5636 13.53C18.5636 15.9904 20.5496 17.985 22.9993 17.985Z" fill="white"/>
<path d="M22.9993 20.955C27.0823 20.955 30.3922 17.6307 30.3922 13.53C30.3922 9.42927 27.0823 6.10498 22.9993 6.10498C18.9163 6.10498 15.6064 9.42927 15.6064 13.53C15.6064 17.6307 18.9163 20.955 22.9993 20.955Z" stroke="white" stroke-width="1.5" stroke-linecap="round" stroke-linejoin="round"/>
<path d="M22.9993 17.985C25.4491 17.985 27.435 15.9904 27.435 13.53C27.435 11.0695 25.4491 9.07495 22.9993 9.07495C20.5496 9.07495 18.5636 11.0695 18.5636 13.53C18.5636 15.9904 20.5496 17.985 22.9993 17.985Z" stroke="white" stroke-width="1.5" stroke-linecap="round" stroke-linejoin="round"/>
<path d="M27.4358 19.47V26.8954L22.9994 24.6679L18.5643 26.8954V19.4706" stroke="white" stroke-width="1.5" stroke-linecap="round" stroke-linejoin="round"/>
<path d="M13.3034 31.6776C12.6639 31.5357 12.0278 31.329 11.3586 31.0456C11.3506 31.0419 11.3307 31.0193 11.3245 30.9991C11.2578 30.7707 11.2354 30.5406 11.256 30.2956C11.387 28.7316 10.4597 27.0836 9.05135 26.3772C9.02139 26.3619 8.99017 26.3487 8.95416 26.3339L8.92078 26.32C8.88904 26.3064 8.8504 26.312 8.82484 26.3327C8.79717 26.3542 8.78344 26.3891 8.78902 26.4241L8.8276 26.6639C8.86177 26.8761 8.89528 27.0838 8.92742 27.2916L8.9355 27.346C9.02592 27.9367 9.11943 28.5475 9.30159 29.1343C9.46588 29.6638 9.71954 30.0816 10.0722 30.4017C9.32709 29.9603 8.63269 29.43 8.00209 28.82C7.98882 28.8072 7.97311 28.7733 7.97088 28.7453L7.95393 28.3268C7.95386 28.3119 7.95366 28.2724 7.96207 28.2528C8.27264 27.526 8.35222 26.708 8.20548 25.752C8.06393 24.83 7.67201 23.9822 7.04037 23.2319C6.96644 23.144 6.90125 23.0996 6.84651 23.0996C6.83317 23.0996 6.82108 23.1023 6.81161 23.1072C6.78257 23.1217 6.76285 23.1498 6.75904 23.1823L6.74215 23.3282C6.72908 23.4367 6.71653 23.5431 6.70529 23.6497C6.68577 23.8374 6.66441 24.0249 6.64299 24.2126L6.6399 24.2396C6.58654 24.708 6.53122 25.1924 6.50198 25.6774C6.46797 26.2431 6.47806 26.9039 6.81102 27.5152C6.8128 27.5182 6.81437 27.5215 6.81615 27.5246C6.35334 26.9433 5.93085 26.3178 5.55392 25.6549C5.52061 25.596 5.51775 25.5443 5.52398 25.4692C5.55075 25.1519 5.69761 24.894 5.85228 24.6628C6.15103 24.215 6.33189 23.6856 6.43873 22.9463C6.58805 21.9125 6.43724 20.8753 5.99074 19.8635C5.97848 19.8356 5.96415 19.8087 5.94883 19.7798L5.91395 19.7137C5.89725 19.6815 5.86157 19.6602 5.82392 19.6619C5.78636 19.6639 5.75325 19.6878 5.73962 19.7225C5.6313 19.9969 5.52655 20.2612 5.42248 20.5236L5.35596 20.6912C5.134 21.2511 4.88506 21.9048 4.74037 22.5793C4.63838 23.0552 4.63215 23.5146 4.72159 23.9519C4.37451 23.1222 4.0892 22.2455 3.87068 21.3364C3.86822 21.3263 3.86742 21.3001 3.88907 21.2396C3.99126 20.9587 4.17735 20.704 4.41315 20.5225C4.92933 20.1248 5.22216 19.5722 5.44047 19.0841C5.88746 18.0857 6.00872 17.0251 5.81107 15.8415C5.80899 15.8291 5.80524 15.8168 5.80079 15.8034L5.79724 15.7926C5.78863 15.7662 5.76906 15.7447 5.74317 15.7335C5.71787 15.7229 5.68605 15.7249 5.66639 15.7346C5.64662 15.7418 5.61667 15.7528 5.59721 15.7815C5.48534 15.9316 5.37178 16.0831 5.25813 16.2344L5.23905 16.26C4.95245 16.6422 4.65607 17.0373 4.37125 17.4308C4.04126 17.8855 3.80823 18.3275 3.6587 18.7821C3.58655 19.0016 3.53942 19.213 3.51718 19.4182C3.42221 18.6807 3.36834 17.9276 3.35659 17.1683C3.35382 16.987 3.37675 16.843 3.49998 16.6853C3.63044 16.5171 3.75229 16.4233 3.9203 16.3613C4.61061 16.108 5.05345 15.5727 5.3621 15.1347C5.86068 14.4261 6.15311 13.6016 6.25609 12.6139C6.26706 12.5123 6.27328 12.4095 6.27971 12.3007L6.28129 12.276C6.28436 12.2231 6.28762 12.168 6.29177 12.1096C6.29434 12.0709 6.27368 12.0346 6.23919 12.017C6.20579 12.0001 6.16299 12.0051 6.13394 12.0298L6.05201 12.1003C6.02118 12.1267 5.99479 12.1493 5.96742 12.1713C5.83588 12.2775 5.70384 12.3825 5.57151 12.4878L5.55767 12.4987C5.26722 12.7298 4.96678 12.9687 4.67989 13.2155C4.12319 13.6922 3.76475 14.1669 3.55177 14.7094C3.51659 14.7988 3.48576 14.8872 3.45927 14.9748C3.54683 14.1128 3.68904 13.264 3.88433 12.4404C3.90804 12.3397 3.92128 12.3101 3.97001 12.294C4.00065 12.2836 4.02921 12.2635 4.05006 12.2387C4.19168 12.077 4.37817 12.0514 4.55882 12.0478C5.16167 12.0336 5.6398 11.7315 6.0279 11.438C6.97951 10.7181 7.63475 8.89181 7.63475 8.82983C7.63475 8.79762 7.61872 8.76753 7.59158 8.74938C7.56477 8.73156 7.52862 8.72912 7.50129 8.74133C7.30309 8.82581 7.10483 8.90804 6.89954 8.99331C6.44791 9.18141 5.98095 9.37578 5.53247 9.5883C5.08113 9.80274 4.72446 10.0896 4.46949 10.4426C4.7125 9.74908 4.99426 9.06915 5.30971 8.41575C5.34598 8.34526 5.51637 8.27042 5.76067 8.27042C5.84013 8.27042 5.91711 8.279 5.98362 8.29503C6.55762 8.43324 7.12678 8.34942 7.75672 8.03328C8.40111 7.70975 8.93583 7.18069 9.39123 6.41551C9.3999 6.40073 9.41699 6.35556 9.42619 6.33025C9.43775 6.29929 9.43309 6.26514 9.4139 6.23923C9.39616 6.21461 9.3677 6.19993 9.33143 6.19993C9.3311 6.19993 9.3309 6.19993 9.33064 6.19993L9.10314 6.21432C8.96369 6.22316 8.82825 6.23179 8.69288 6.23874L8.54831 6.24608C8.11663 6.26792 7.67011 6.29035 7.2333 6.39487C6.73512 6.51517 6.36934 6.69988 6.08888 6.97385C6.42084 6.41889 6.77633 5.89084 7.15077 5.39624C7.16089 5.38314 7.20919 5.36309 7.24881 5.35644C7.26859 5.35177 7.34055 5.33659 7.43616 5.33659C7.56306 5.33659 7.67418 5.3625 7.76835 5.4145C8.36674 5.70841 9.0388 5.73024 9.76843 5.47852C10.367 5.27316 10.8738 4.89172 11.3182 4.31275C11.3326 4.29409 11.3456 4.27374 11.3575 4.2523C11.371 4.22759 11.3719 4.20039 11.36 4.17557C11.3257 4.10312 11.1768 4.06907 11.1142 4.05775C10.9604 4.03076 10.7861 3.99998 10.6134 3.97646C10.5343 3.96535 10.455 3.95373 10.3755 3.94192L10.3653 3.94033C10.0961 3.90043 9.81785 3.85914 9.53744 3.84495C9.02514 3.81864 8.57026 3.92366 8.19792 4.15612C8.44829 3.88852 8.70405 3.63462 8.96376 3.3961C9.0459 3.32087 9.13882 3.24504 9.26539 3.14985C9.27518 3.14231 9.30008 3.13347 9.33064 3.13168C10.2279 3.09645 10.9745 2.69862 11.613 1.91569C11.9607 1.48947 12.2273 0.951894 12.4283 0.272181L12.4352 0.248856C12.4566 0.17739 12.4685 0.138084 12.4192 0.0920292C12.3812 0.0564948 12.3141 0.0670165 12.14 0.136298C11.9819 0.197341 11.8227 0.256598 11.6594 0.317443C11.3312 0.439628 10.9917 0.565982 10.6641 0.708717C10.1166 0.947729 9.67939 1.31002 9.36481 1.78536C9.12528 2.14705 9.03059 2.51043 9.07514 2.89436C9.07488 2.89863 9.07107 2.90885 9.07048 2.91004C8.49896 3.40564 7.95268 3.96356 7.39174 4.62759C7.76579 4.05319 8.00959 3.39184 8.13195 2.62518C8.25529 1.85226 8.26311 1.16431 8.15593 0.522111C8.14916 0.481912 8.13996 0.441713 8.1282 0.391389L8.11072 0.313869C8.10277 0.280618 8.07786 0.253719 8.04514 0.243396C8.01248 0.233669 7.97581 0.242305 7.95136 0.26563C7.91226 0.302653 7.87389 0.337591 7.83643 0.371538L7.81008 0.395459C7.7142 0.48221 7.62365 0.564097 7.54177 0.656704C6.7457 1.55866 6.28139 2.51133 6.12238 3.56921C6.04993 4.04733 6.07998 4.45439 6.21428 4.8133C6.25876 4.93222 6.32813 5.03842 6.39721 5.14383C6.42884 5.19197 6.46046 5.24031 6.48942 5.28993C6.51077 5.32557 6.51255 5.3348 6.51245 5.33311C6.49931 5.47456 6.48043 5.63218 6.45493 5.82136C6.45385 5.82374 6.45028 5.8293 6.43892 5.84439L6.42973 5.85719C5.99439 6.46495 5.59276 7.10565 5.23134 7.76882C5.37346 7.27349 5.48662 6.64662 5.47861 5.91814C5.46893 5.04438 5.2686 4.26511 4.86598 3.53546C4.85007 3.50708 4.82121 3.48862 4.78079 3.48584C4.75144 3.48584 4.72318 3.50042 4.7047 3.52534C4.69264 3.54222 4.68038 3.55809 4.66872 3.57318C4.64273 3.60693 4.61841 3.63889 4.59667 3.67303C4.27607 4.17795 4.10412 4.73469 3.98997 5.16338C3.78134 5.9496 3.68548 6.60609 3.68825 7.22953C3.68983 7.75944 3.78599 8.1668 3.99096 8.51151C4.0547 8.61883 4.13495 8.71275 4.2156 8.80719C4.25838 8.85735 4.30237 8.90883 4.3422 8.96163C4.37006 8.9984 4.3835 9.03582 4.38429 9.05667C4.38953 9.18234 4.38676 9.31005 4.3841 9.43353L4.38222 9.51887C4.38192 9.53359 4.37856 9.55049 4.37352 9.56336C4.11617 10.1896 3.88996 10.8404 3.69705 11.5088C3.72541 11.2812 3.74142 11.0608 3.74547 10.8459C3.76879 9.62559 3.39611 8.53587 2.63752 7.60652L2.47939 7.41308C2.46111 7.39031 2.43403 7.37744 2.40517 7.37744L2.38936 7.37882C2.35556 7.38443 2.32709 7.40799 2.31534 7.44007C2.30091 7.47868 2.28678 7.51511 2.27304 7.55036C2.24655 7.6184 2.22155 7.68295 2.2004 7.74855C2.03763 8.26058 1.95778 8.82 1.94157 9.5621L1.94127 9.57656C1.92912 10.1164 1.91242 10.856 2.1332 11.5637C2.35052 12.2604 2.73377 12.6124 2.80809 12.6757L2.816 12.6828C3.0183 12.8641 3.15003 13.03 3.17731 13.1377C3.18828 13.1812 3.19945 13.2248 3.2125 13.2679C3.27021 13.4595 3.23414 13.6422 3.1952 13.8394C3.17583 13.9389 3.15567 14.0417 3.14865 14.1473C3.12078 14.5695 3.08659 14.9989 3.05348 15.4141L3.05052 15.4525C3.04202 15.5584 3.03352 15.6643 3.02512 15.7702C2.94072 14.8201 2.62743 13.9565 2.08843 13.1927C1.75834 12.7254 1.36481 12.3256 0.918508 12.0041C0.899234 11.9902 0.878975 11.9778 0.8519 11.9616C0.838751 11.9539 0.823531 11.9448 0.805053 11.9332C0.777183 11.9165 0.741408 11.9149 0.712652 11.9291C0.683199 11.9434 0.662939 11.9728 0.659581 12.0059C0.65355 12.0659 0.646533 12.1241 0.639121 12.1845C0.624198 12.308 0.610066 12.4247 0.609473 12.5446C0.602851 13.7876 0.864649 14.9523 1.38784 16.0059C1.53361 16.3 1.72622 16.5543 1.96055 16.7621C2.19289 16.967 2.44361 17.0879 2.72656 17.1314C2.73279 17.1325 2.74761 17.1415 2.74988 17.1433C2.7652 17.1742 2.78111 17.2052 2.79702 17.2363C2.85355 17.3459 2.91196 17.4594 2.94102 17.5731C2.96523 17.6693 2.96523 17.7744 2.96523 17.8858C2.96523 17.9266 2.96523 17.9677 2.96651 18.008C2.99369 18.9708 3.02937 19.3061 3.18275 20.1663C3.08916 19.9106 2.97165 19.654 2.81995 19.4073C2.20564 18.4087 1.4252 17.7309 0.434053 17.3353C0.371002 17.3098 0.307752 17.2914 0.234422 17.27L0.219795 17.2656C0.190048 17.2569 0.158522 17.2475 0.124822 17.2372C0.0943828 17.2272 0.0596945 17.2341 0.0348888 17.2547C0.0101819 17.2753 -0.00276451 17.3067 0.000496806 17.3395C0.00781008 17.4078 0.0128502 17.4742 0.0174952 17.539C0.0276744 17.6811 0.0372607 17.8153 0.0715537 17.9481C0.39136 19.1887 0.920683 20.1768 1.68966 20.969C2.01846 21.3077 2.36495 21.5018 2.74889 21.5627C2.84574 21.5779 2.96414 21.5798 3.16456 21.5672L3.22228 21.5637C3.23107 21.5633 3.23878 21.5627 3.2458 21.5627C3.26161 21.5627 3.2629 21.5627 3.27387 21.5791L3.54238 21.9494C3.54584 21.9543 3.55088 21.9718 3.55434 21.9839L3.55829 21.9972C3.83699 22.9461 4.18279 23.8601 4.59054 24.7275C4.40702 24.4731 4.20591 24.2408 3.98177 24.0224C2.951 23.0179 1.1887 22.9888 0.991142 22.9888L0.966539 22.989L0.951024 22.9919C0.902599 23.0091 0.876405 23.0611 0.891329 23.1101C0.905063 23.1563 0.917917 23.2029 0.932637 23.2577C0.960802 23.3607 0.990058 23.4669 1.03107 23.5697C1.22635 24.0599 1.5429 24.5314 2.02745 25.0541C2.3604 25.4124 2.73575 25.7757 3.22386 26.0055C3.75842 26.2577 4.2411 26.3192 4.7211 26.1957C4.80273 26.1742 4.89662 26.1468 4.97736 26.0942C5.03488 26.0572 5.05059 26.0584 5.10712 26.1007C5.17413 26.1507 5.24538 26.1927 5.31456 26.2334C5.3528 26.2559 5.39135 26.2787 5.42732 26.3015C5.43305 26.3064 5.44531 26.3266 5.44985 26.334C5.88054 27.0395 6.35502 27.6952 6.86734 28.2933C6.59022 28.0908 6.3057 27.9444 6.00349 27.8467C5.07994 27.5479 4.11193 27.5859 3.15319 27.9582C3.0101 28.0139 2.85326 28.0983 2.84278 28.1042C2.82084 28.1187 2.80572 28.1422 2.80097 28.169C2.79683 28.1954 2.80365 28.2225 2.81966 28.2431C2.8496 28.2822 2.87856 28.3215 2.90721 28.3605L2.91354 28.3691C2.97827 28.4576 3.0516 28.5578 3.13383 28.6465C3.50414 29.0452 3.96082 29.3125 4.39922 29.542C5.00207 29.8561 5.61855 30.0253 6.23168 30.0452C6.26053 30.0462 6.2894 30.0468 6.31815 30.0468C6.88219 30.0468 7.32241 29.8601 7.66183 29.4783C7.66597 29.4753 7.68069 29.4696 7.68877 29.4695C7.81842 29.4789 7.9417 29.4978 8.03377 29.5132C8.04836 29.5157 8.06623 29.5245 8.0774 29.5346C8.64439 30.0387 9.24482 30.4813 9.87213 30.8579C9.77704 30.8295 9.67906 30.8049 9.57884 30.7852C8.90849 30.6558 8.22447 30.7369 7.47323 31.0367C6.96644 31.2396 6.49515 31.5377 6.03234 31.9478C5.99419 31.9815 5.98886 32.0394 6.02029 32.0795C6.18404 32.2888 6.39712 32.406 6.58398 32.493C7.03977 32.7057 7.55432 32.8419 8.15744 32.9096C8.15922 32.9097 8.35301 32.9266 8.6248 32.9266C8.82096 32.9266 9.00351 32.9177 9.16708 32.9004C9.32341 32.8839 9.47935 32.857 9.63063 32.8204C10.3256 32.6505 10.7965 32.3011 11.0664 31.7587C11.0711 31.754 11.0919 31.7419 11.1182 31.7355C11.2436 31.7042 11.3565 31.6821 11.4638 31.6677C11.4891 31.6637 11.5206 31.6705 11.5604 31.6866C12.0403 31.8723 12.5481 32.027 13.0689 32.1464C13.0762 32.1482 13.0838 32.1491 13.0914 32.1491C13.1264 32.1491 13.1586 32.1297 13.1756 32.0981C13.2253 32.0053 13.2859 31.9161 13.3556 31.8332C13.3774 31.8071 13.384 31.7724 13.3732 31.7402C13.3629 31.7091 13.3368 31.6854 13.3034 31.6776Z" fill="white"/>
</g>
<defs>
<clipPath id="clip0_4_314">
<rect width="46" height="33" fill="white"/>
</clipPath>
</defs>
</svg>
