<svg width="28" height="28" viewBox="0 0 28 28" fill="none" xmlns="http://www.w3.org/2000/svg">
<g clip-path="url(#clip0_3_109)">
<path d="M14.0252 5.73481e-07C21.736 0.00218773 28.0088 6.29464 28.0066 14.0262C28.0044 21.7622 21.7108 28.0066 13.9235 28C6.23341 27.9923 -0.0065563 21.6835 5.16992e-06 13.9213C0.00656664 6.25199 6.30668 -0.00218658 14.0252 5.73481e-07ZM17.6394 20.1973C18.0375 20.2946 18.4563 20.4084 18.8796 20.498C20.0606 20.7474 21.2472 20.9453 22.4381 20.5626C23.6333 20.1787 24.2436 19.1497 23.8608 17.9588C23.6268 17.2293 23.244 16.524 22.8077 15.8897C22.3385 15.2073 21.7283 14.6222 21.1061 13.9092C21.2504 13.7999 21.4254 13.6971 21.5632 13.5571C22.4884 12.6199 23.3632 11.639 23.7985 10.3638C24.3267 8.81643 23.5666 7.60147 21.9613 7.31714C20.9114 7.13123 19.8955 7.29417 18.8774 7.50414C18.4421 7.59381 18.0123 7.70864 17.5684 7.81472C17.4973 7.55445 17.4481 7.36198 17.3934 7.17169C17.0697 6.03109 16.6858 4.91673 15.9641 3.9522C14.8202 2.42447 13.1765 2.40369 12.0655 3.94017C11.6969 4.44977 11.3995 5.02609 11.1545 5.60787C10.8603 6.30558 10.658 7.04156 10.3999 7.80816C10.132 7.74254 9.85534 7.67146 9.57648 7.60694C8.25981 7.30511 6.93876 7.01203 5.59366 7.43415C4.36667 7.818 3.75754 8.84706 4.15451 10.0719C4.39073 10.8002 4.78004 11.5023 5.21856 12.1354C5.6888 12.8146 6.29683 13.3974 6.86987 14.0503C6.70474 14.2034 6.53633 14.3423 6.3876 14.4998C5.4176 15.519 4.47165 16.5568 4.11842 17.9773C3.82972 19.1387 4.35026 20.205 5.49633 20.5188C6.19841 20.7113 6.97157 20.7583 7.70099 20.7058C8.61522 20.6391 9.51633 20.4018 10.447 20.2345C10.5771 20.6829 10.6591 21.1553 10.8483 21.5796C11.2322 22.4381 11.5799 23.3359 12.1114 24.0992C13.1437 25.5821 14.8049 25.5646 15.8963 24.1309C16.1806 23.758 16.4463 23.3512 16.6257 22.9214C16.9866 22.0531 17.2851 21.1597 17.6394 20.1973Z" fill="black"/>
<path d="M17.6394 20.1973C17.2851 21.1596 16.9866 22.0542 16.6224 22.9203C16.442 23.3512 16.1773 23.7569 15.893 24.1298C14.8016 25.5635 13.1404 25.581 12.1081 24.0981C11.5766 23.3348 11.2289 22.4369 10.845 21.5785C10.6558 21.1542 10.5738 20.6817 10.4437 20.2334C9.51303 20.4007 8.61193 20.638 7.69769 20.7047C6.96828 20.7583 6.19512 20.7113 5.49304 20.5177C4.34697 20.2027 3.82642 19.1376 4.11513 17.9762C4.46835 16.5557 5.4143 15.5179 6.38431 14.4986C6.53413 14.3412 6.70144 14.2023 6.86657 14.0492C6.29463 13.3963 5.68551 12.8134 5.21527 12.1343C4.77674 11.5022 4.38743 10.7991 4.15122 10.0707C3.75425 8.84593 4.36337 7.81687 5.59037 7.43303C6.93547 7.012 8.25651 7.30508 9.57318 7.60581C9.85204 7.66924 10.1287 7.74142 10.3966 7.80703C10.6547 7.04043 10.8581 6.30445 11.1512 5.60675C11.3962 5.02497 11.6936 4.44974 12.0622 3.93904C13.1743 2.40147 14.8169 2.42334 15.9608 3.95107C16.6825 4.91561 17.0664 6.02996 17.3901 7.17057C17.4437 7.36085 17.494 7.55332 17.5651 7.81359C18.0091 7.70751 18.4388 7.59378 18.8741 7.50302C19.8922 7.29305 20.9092 7.13011 21.958 7.31601C23.5633 7.60034 24.3234 8.81531 23.7952 10.3627C23.3599 11.6367 22.4851 12.6188 21.5599 13.556C21.4221 13.696 21.2471 13.7988 21.1028 13.9081C21.7261 14.6211 22.3352 15.2073 22.8044 15.8886C23.2407 16.5229 23.6235 17.2282 23.8575 17.9576C24.2403 19.1496 23.629 20.1787 22.4348 20.5614C21.2439 20.9442 20.0573 20.7463 18.8763 20.4969C18.4563 20.4072 18.0375 20.2935 17.6394 20.1973ZM16.7492 13.9606C17.0937 12.7719 16.4977 12.1212 15.4763 11.5897C13.9737 10.8067 14.0011 10.7542 12.5215 11.6214C11.2026 12.3946 11.2026 12.3946 11.1928 13.9431C11.1818 15.6021 11.1818 15.6021 12.6155 16.4255C14.0087 17.226 13.9759 17.1604 15.4238 16.4387C16.5054 15.8984 17.0708 15.204 16.7492 13.9606ZM16.3479 8.11651C15.8416 6.99013 15.4271 5.86702 14.8464 4.83687C14.3565 3.96638 13.6424 3.95326 13.1765 4.82047C12.6243 5.84515 12.2645 6.97372 11.8445 8.0673C11.8139 8.14604 11.9561 8.35929 12.0644 8.41069C12.621 8.67315 13.1886 8.91701 13.7638 9.13682C13.9125 9.19369 14.1225 9.18166 14.2745 9.1237C14.8322 8.90936 15.3801 8.66768 15.9269 8.4249C16.0395 8.3735 16.1314 8.27618 16.3479 8.11651ZM7.82455 14.8475C7.61896 15.1176 7.40024 15.3855 7.2023 15.6688C6.64348 16.4682 6.02124 17.2348 5.56303 18.0889C5.21418 18.7395 5.4657 19.1201 6.19621 19.2688C7.57849 19.5499 8.87329 19.1529 10.1473 18.7713C10.0719 18.0407 10.015 17.389 9.93078 16.7405C9.90891 16.5732 9.84658 16.3621 9.72628 16.2659C9.15872 15.8131 8.566 15.3943 7.82455 14.8475ZM17.8592 18.7713C19.0261 19.1474 20.205 19.4318 21.4385 19.3476C22.4971 19.2754 22.8022 18.7745 22.3692 17.8209C21.8475 16.6716 20.977 15.7956 20.0584 14.9383C19.4416 15.3943 18.8489 15.8131 18.2814 16.2659C18.1611 16.3621 18.0965 16.5721 18.0758 16.7394C17.9916 17.3879 17.9347 18.0407 17.8592 18.7713ZM14.0098 18.7636C13.3067 19.06 12.6046 19.3509 11.9123 19.6603C11.8544 19.6866 11.815 19.8572 11.838 19.9425C12.1398 21.082 12.446 22.2237 13.1557 23.197C13.7408 23.9986 14.3499 24.0292 14.8508 23.1576C15.3418 22.3035 15.7191 21.3696 16.0264 20.4302C16.3085 19.5685 16.3687 19.7631 15.5201 19.4055C15.0203 19.1956 14.5216 18.9812 14.0098 18.7636ZM10.144 9.26477C9.20246 8.85249 7.50741 8.5616 6.56912 8.64799C5.50944 8.74532 5.20433 9.2254 5.63739 10.1779C6.15903 11.3284 7.03061 12.201 7.94922 13.0606C8.566 12.6057 9.15872 12.1868 9.72519 11.7341C9.84548 11.6378 9.90782 11.4268 9.92969 11.2595C10.015 10.6121 10.0719 9.96029 10.144 9.26477ZM17.845 9.08324C17.9347 9.95591 17.9948 10.6252 18.079 11.2923C18.0976 11.4432 18.1556 11.6346 18.2639 11.7199C18.8467 12.1781 19.4504 12.6089 20.0606 13.0584C20.9562 12.2218 21.7874 11.3787 22.3156 10.2971C22.8416 9.22103 22.5015 8.61519 21.2974 8.6644C20.1492 8.71142 19.0075 8.9356 17.845 9.08324ZM9.05264 14.0011C9.31291 14.1968 9.5185 14.3521 9.78424 14.5522C9.78424 14.1498 9.78424 13.8436 9.78424 13.4379C9.5185 13.6413 9.32385 13.7922 9.05264 14.0011ZM18.2343 13.4477C18.2343 13.8655 18.2343 14.1717 18.2343 14.5555C18.5066 14.3434 18.71 14.1848 18.9528 13.9967C18.6947 13.7998 18.4902 13.6435 18.2343 13.4477ZM11.3863 10.6547C11.7461 10.4524 12.0359 10.2884 12.4001 10.0839C12.0764 9.94716 11.8139 9.83671 11.5263 9.71533C11.4782 10.0368 11.441 10.2829 11.3863 10.6547ZM15.6108 10.0795C15.9717 10.2873 16.2582 10.4524 16.6147 10.6569C16.5633 10.2971 16.5262 10.0325 16.4802 9.71204C16.1926 9.83343 15.9345 9.94279 15.6108 10.0795ZM11.5318 18.2868C11.8172 18.1676 12.0731 18.0615 12.4099 17.9215C12.0359 17.7116 11.7472 17.5497 11.3841 17.3452C11.4421 17.7192 11.4826 17.9784 11.5318 18.2868ZM15.5933 17.9226C15.9455 18.0648 16.2014 18.1687 16.4868 18.2835C16.5294 17.9489 16.5622 17.6864 16.6049 17.3518C16.2615 17.5464 15.9805 17.705 15.5933 17.9226Z" fill="white"/>
<path d="M16.7493 13.9607C17.0708 15.2041 16.5054 15.8985 15.4239 16.4387C13.976 17.1605 14.0088 17.2261 12.6155 16.4256C11.183 15.6021 11.183 15.6021 11.1928 13.9432C11.2026 12.3946 11.2026 12.3946 12.5215 11.6215C14.0011 10.7543 13.9727 10.8079 15.4763 11.5898C16.4977 12.1213 17.0937 12.7719 16.7493 13.9607Z" fill="black"/>
<path d="M16.3479 8.1166C16.1314 8.27626 16.0384 8.37359 15.9258 8.4239C15.379 8.66667 14.8322 8.90835 14.2734 9.12269C14.1214 9.18065 13.9114 9.19268 13.7627 9.13582C13.1875 8.9171 12.6199 8.67323 12.0633 8.40968C11.955 8.35828 11.8128 8.14503 11.8435 8.0663C12.2623 6.97272 12.6232 5.84414 13.1754 4.81946C13.6424 3.95335 14.3554 3.96537 14.8453 4.83586C15.4271 5.86711 15.8427 6.99021 16.3479 8.1166Z" fill="black"/>
<path d="M7.82456 14.8475C8.566 15.3943 9.15872 15.8132 9.7252 16.2659C9.84549 16.3621 9.90783 16.5732 9.9297 16.7405C10.0139 17.389 10.0708 18.0408 10.1462 18.7713C8.87221 19.1519 7.57741 19.5499 6.19512 19.2689C5.46461 19.1201 5.21309 18.7396 5.56194 18.0889C6.02015 17.2348 6.6424 16.4682 7.20122 15.6688C7.40025 15.3856 7.61896 15.1176 7.82456 14.8475Z" fill="black"/>
<path d="M17.8593 18.7712C17.9347 18.0396 17.9916 17.3878 18.0758 16.7394C18.0977 16.5731 18.1622 16.3621 18.2814 16.2658C18.8478 15.8131 19.4417 15.3943 20.0584 14.9382C20.9781 15.7956 21.8475 16.6716 22.3692 17.8209C22.8022 18.7745 22.4971 19.2754 21.4385 19.3475C20.205 19.4317 19.0261 19.1474 17.8593 18.7712Z" fill="black"/>
<path d="M14.0099 18.7637C14.5217 18.9813 15.0203 19.1945 15.5201 19.4067C16.3676 19.7654 16.3075 19.5696 16.0264 20.4314C15.7191 21.3697 15.3418 22.3047 14.8508 23.1588C14.35 24.0293 13.7408 23.9997 13.1558 23.1981C12.446 22.2248 12.1398 21.0832 11.838 19.9436C11.815 19.8583 11.8544 19.6867 11.9124 19.6615C12.6046 19.3509 13.3067 19.0611 14.0099 18.7637Z" fill="black"/>
<path d="M10.144 9.26478C10.0719 9.9592 10.015 10.6121 9.93079 11.2606C9.90892 11.4279 9.8455 11.6389 9.7263 11.7352C9.15982 12.1868 8.56601 12.6068 7.95032 13.0617C7.03172 12.2021 6.16013 11.3295 5.6385 10.179C5.20544 9.22651 5.51055 8.74643 6.57023 8.6491C7.50742 8.56161 9.20247 8.8536 10.144 9.26478Z" fill="black"/>
<path d="M17.845 9.08324C19.0075 8.93452 20.1492 8.71033 21.2975 8.6644C22.5015 8.61519 22.8416 9.22104 22.3156 10.2971C21.7863 11.3798 20.9563 12.2218 20.0606 13.0584C19.4504 12.6089 18.8468 12.1781 18.2639 11.7199C18.1556 11.6346 18.0977 11.4421 18.0791 11.2923C17.9949 10.6252 17.9347 9.95592 17.845 9.08324Z" fill="black"/>
<path d="M9.05267 14.0011C9.32279 13.7922 9.51854 13.6424 9.78428 13.4379C9.78428 13.8436 9.78428 14.1498 9.78428 14.5522C9.51963 14.3521 9.31295 14.1968 9.05267 14.0011Z" fill="black"/>
<path d="M18.2343 13.4478C18.4902 13.6435 18.6947 13.7999 18.9528 13.9967C18.7111 14.1848 18.5077 14.3434 18.2343 14.5556C18.2343 14.1717 18.2343 13.8655 18.2343 13.4478Z" fill="black"/>
<path d="M11.3864 10.6547C11.4421 10.2829 11.4782 10.0379 11.5263 9.71533C11.8139 9.83672 12.0764 9.94717 12.4001 10.0839C12.0359 10.2884 11.745 10.4524 11.3864 10.6547Z" fill="black"/>
<path d="M15.6108 10.0795C15.9345 9.94278 16.1926 9.83342 16.4802 9.71204C16.5262 10.0325 16.5633 10.2971 16.6147 10.6569C16.2582 10.4524 15.9717 10.2873 15.6108 10.0795Z" fill="black"/>
<path d="M11.5318 18.2868C11.4837 17.9784 11.4421 17.7192 11.3831 17.3452C11.7472 17.5497 12.0359 17.7116 12.4088 17.9215C12.0731 18.0615 11.8172 18.1676 11.5318 18.2868Z" fill="black"/>
<path d="M15.5933 17.9227C15.9804 17.7039 16.2615 17.5465 16.6049 17.3518C16.5622 17.6864 16.5294 17.9489 16.4868 18.2835C16.2014 18.1687 15.9465 18.0659 15.5933 17.9227Z" fill="black"/>
</g>
<defs>
<clipPath id="clip0_3_109">
<rect width="28.0066" height="28" fill="white"/>
</clipPath>
</defs>
</svg>
