<svg width="28" height="28" viewBox="0 0 28 28" fill="none" xmlns="http://www.w3.org/2000/svg">
<g clip-path="url(#clip0_3_127)">
<path d="M14.0219 5.73481e-07C6.3052 -0.00218658 0.00656511 6.25199 5.16871e-06 13.9213C-0.00655477 21.6835 6.23195 27.9934 13.9202 28C21.7057 28.0077 27.9989 21.7622 28 14.0262C28.0022 6.29464 21.7309 0.00218773 14.0219 5.73481e-07Z" fill="black"/>
<path d="M9.22003 12.0589C9.40262 11.0878 9.80824 10.2272 10.5222 9.52839C10.9715 9.08878 11.4996 8.77711 12.0922 8.57261C12.4661 8.44247 12.851 8.36155 13.2446 8.31671C13.6644 8.26859 14.0842 8.26094 14.5052 8.28937C15.5711 8.36264 16.5311 8.71477 17.3708 9.38404C17.7359 9.67384 18.0628 10.0041 18.3843 10.3409C18.6182 10.587 18.85 10.8363 19.1102 11.0561C19.3376 11.2486 19.6011 11.3754 19.8767 11.4815C20.138 11.5821 20.4069 11.6499 20.6857 11.6762C21.2357 11.7287 21.7528 11.6182 22.2382 11.3558C22.6537 11.1305 23.0025 10.8243 23.3075 10.4656C23.3818 10.3781 23.4518 10.2884 23.5327 10.202C23.5087 10.2961 23.4879 10.3901 23.4606 10.4831C23.22 11.2847 22.8319 12.0064 22.2699 12.6298C21.7178 13.2433 21.0421 13.6512 20.2364 13.8404C19.892 13.9213 19.5465 13.9847 19.1933 14.0099C18.8642 14.0328 18.5351 14.0296 18.2061 13.9946C17.7294 13.9454 17.2658 13.8371 16.8175 13.6676C16.2534 13.4543 15.7264 13.1722 15.2661 12.7796C15.0606 12.6046 14.8747 12.4067 14.6834 12.2153C14.3652 11.8971 14.0449 11.581 13.6895 11.3033C13.3539 11.0408 12.9975 10.8155 12.5918 10.6756C11.9916 10.4678 11.399 10.5104 10.8163 10.7401C10.2685 10.9566 9.82136 11.312 9.44416 11.7593C9.40371 11.8074 9.36654 11.8566 9.32936 11.9069C9.2911 11.9572 9.25611 12.0086 9.22003 12.0589Z" fill="white"/>
<path d="M4.46735 17.7499C4.48265 17.6744 4.49577 17.599 4.51436 17.5246C4.69804 16.7613 5.02494 16.069 5.54536 15.4741C6.01002 14.9427 6.57855 14.5632 7.23673 14.316C7.62049 14.1717 8.01737 14.082 8.42299 14.0295C8.79472 13.9814 9.16754 13.9694 9.54146 13.9825C10.7638 14.0241 11.8516 14.421 12.7864 15.2204C13.0795 15.4719 13.3506 15.7464 13.6174 16.0231C13.8109 16.2243 14.0077 16.4223 14.2045 16.6191C14.4592 16.8728 14.7643 17.0456 15.0966 17.1725C15.4531 17.3081 15.8182 17.3912 16.202 17.3912C16.6579 17.3912 17.0832 17.2774 17.4823 17.0631C17.9524 16.8094 18.3351 16.454 18.6663 16.0395C18.7024 15.9936 18.7385 15.9477 18.7746 15.9006C18.7789 15.9017 18.7822 15.9039 18.7866 15.905C18.7494 16.0384 18.7166 16.174 18.674 16.3064C18.4455 17.0128 18.1 17.6558 17.6178 18.2223C17.1696 18.7483 16.6338 19.1551 15.98 19.3935C15.6455 19.516 15.2989 19.5958 14.9468 19.6527C14.5806 19.7129 14.2121 19.7347 13.8415 19.7238C13.3604 19.7085 12.8892 19.6308 12.4278 19.4919C11.7598 19.2907 11.1421 18.9878 10.5998 18.5493C10.3549 18.3513 10.1373 18.1184 9.91319 17.8964C9.57754 17.5651 9.24298 17.2326 8.86469 16.9483C8.50827 16.6793 8.12779 16.4551 7.69374 16.3326C7.23892 16.2046 6.7841 16.22 6.33584 16.3523C5.55958 16.583 4.96699 17.0642 4.50452 17.7182C4.49577 17.7302 4.48703 17.7411 4.47828 17.7532C4.475 17.7532 4.47172 17.751 4.46735 17.7499Z" fill="white"/>
</g>
<defs>
<clipPath id="clip0_3_127">
<rect width="28" height="28" fill="white"/>
</clipPath>
</defs>
</svg>
