<svg width="28" height="28" viewBox="0 0 28 28" fill="none" xmlns="http://www.w3.org/2000/svg">
<g clip-path="url(#clip0_3_93)">
<path d="M14.0454 1.29222e-06C21.7554 0.00328216 28.0088 6.2927 28.0055 14.0421C28.0022 21.7707 21.7007 28.0087 13.9054 28C6.22381 27.9912 -0.00764831 21.6734 7.04591e-06 13.9021C0.0076624 6.2413 6.31676 -0.00327957 14.0454 1.29222e-06ZM6.00618 13.9732C6.00618 16.0325 6.00508 18.0918 6.00618 20.1511C6.00727 21.4241 6.56611 21.9927 7.82268 21.9938C11.9424 21.9949 16.0609 21.9949 20.1806 21.9938C21.4175 21.9938 21.996 21.4241 21.996 20.2047C21.9982 16.0686 21.9982 11.9314 21.996 7.79534C21.996 6.59673 21.4175 6.00836 20.2342 6.00727C16.0784 6.00508 11.9227 6.00508 7.76691 6.00727C6.5847 6.00836 6.00836 6.59673 6.00618 7.79643C6.00399 9.85572 6.00618 11.9139 6.00618 13.9732Z" fill="black"/>
<path d="M6.00615 13.9733C6.00615 11.914 6.00396 9.85468 6.00724 7.79539C6.00833 6.59568 6.58577 6.00622 7.76797 6.00622C11.9237 6.00294 16.0795 6.00403 20.2353 6.00622C21.4186 6.00731 21.9971 6.59568 21.9971 7.79429C21.9993 11.9304 21.9993 16.0675 21.9971 20.2036C21.9971 21.423 21.4186 21.9917 20.1817 21.9928C16.062 21.9939 11.9434 21.9939 7.82375 21.9928C6.56717 21.9928 6.00833 21.4241 6.00724 20.15C6.00396 18.0918 6.00615 16.0325 6.00615 13.9733ZM15.8958 18.8705C15.8958 19.1942 15.922 19.5037 15.8892 19.8077C15.8455 20.2156 16.0183 20.3939 16.4021 20.4901C17.3754 20.7351 18.34 20.7767 19.3068 20.4781C20.0756 20.2408 20.5502 19.7224 20.6618 18.9295C20.7821 18.0831 20.5065 17.3733 19.7464 16.9271C19.3254 16.68 18.8584 16.5105 18.4308 16.2731C18.0174 16.0435 17.4618 15.8838 17.5799 15.2375C17.6499 14.8514 18.2296 14.6251 18.8835 14.6743C18.9918 14.6819 19.1012 14.6994 19.2062 14.7279C19.5813 14.8317 19.9553 14.9422 20.3665 15.0614C20.3665 14.6863 20.3873 14.3396 20.3556 13.9973C20.3435 13.8694 20.2342 13.6703 20.1325 13.6441C19.017 13.3554 17.8949 13.2679 16.845 13.853C15.6475 14.519 15.5228 16.1922 16.6219 17.019C17.0638 17.3515 17.604 17.5571 18.1093 17.7987C18.819 18.1389 19.1132 18.4844 18.994 18.8781C18.8693 19.2894 18.3225 19.5256 17.6456 19.4567C17.5559 19.4479 17.4629 19.4359 17.3787 19.4064C16.9041 19.239 16.4338 19.0652 15.8958 18.8705ZM15.2691 13.6145C13.3892 13.6145 11.576 13.6145 9.73102 13.6145C9.73102 14.0378 9.73102 14.4282 9.73102 14.8755C10.3861 14.8755 11.0149 14.8755 11.7017 14.8755C11.7017 16.797 11.7017 18.6616 11.7017 20.5448C12.2431 20.5448 12.7243 20.5448 13.2689 20.5448C13.2689 18.6485 13.2689 16.7839 13.2689 14.8547C13.9765 14.8547 14.6206 14.8547 15.2691 14.8547C15.2691 14.4129 15.2691 14.0378 15.2691 13.6145Z" fill="white"/>
<path d="M15.8958 18.8704C16.4339 19.0662 16.9041 19.239 17.3766 19.4063C17.4608 19.4358 17.5537 19.4479 17.6434 19.4566C18.3204 19.5255 18.8672 19.2893 18.9918 18.8781C19.1121 18.4844 18.8169 18.1388 18.1071 17.7987C17.6019 17.5559 17.0616 17.3503 16.6198 17.0189C15.5207 16.1922 15.6454 14.5189 16.8429 13.8529C17.8928 13.2689 19.0148 13.3553 20.1303 13.644C20.232 13.6703 20.3414 13.8693 20.3534 13.9973C20.384 14.3396 20.3643 14.6862 20.3643 15.0613C19.9531 14.9421 19.5802 14.8317 19.204 14.7278C19.099 14.6994 18.9897 14.6819 18.8814 14.6742C18.2274 14.625 17.6478 14.8514 17.5778 15.2374C17.4597 15.8838 18.0152 16.0445 18.4286 16.2731C18.8562 16.5104 19.3232 16.6788 19.7443 16.9271C20.5054 17.3744 20.7799 18.0841 20.6596 18.9295C20.547 19.7224 20.0723 20.2407 19.3046 20.4781C18.3379 20.7766 17.3733 20.7351 16.4 20.4901C16.0161 20.3938 15.8433 20.2156 15.8871 19.8077C15.922 19.5036 15.8958 19.1931 15.8958 18.8704Z" fill="black"/>
<path d="M15.2691 13.6145C15.2691 14.0366 15.2691 14.4128 15.2691 14.8547C14.6206 14.8547 13.9765 14.8547 13.2689 14.8547C13.2689 16.7838 13.2689 18.6484 13.2689 20.5448C12.7243 20.5448 12.2431 20.5448 11.7017 20.5448C11.7017 18.6616 11.7017 16.7969 11.7017 14.8754C11.0149 14.8754 10.3872 14.8754 9.73102 14.8754C9.73102 14.4282 9.73102 14.0377 9.73102 13.6145C11.576 13.6145 13.3892 13.6145 15.2691 13.6145Z" fill="black"/>
</g>
<defs>
<clipPath id="clip0_3_93">
<rect width="28.0055" height="28" fill="white"/>
</clipPath>
</defs>
</svg>
